<svg width="16" height="16" viewBox="0 0 24 24" fill="none" xmlns="http://www.w3.org/2000/svg">
    <path fill="context-fill" fill-opacity="context-fill-opacity" fill-rule="evenodd" clip-rule="evenodd"
        d="M4 19C3.44772 19 3 18.5523 3 18V8C3 7.44772 3.44772 7 4 7H20C20.5523 7 21 7.44772 21 8V18C21 18.5523 20.5523 19 20 19H4ZM16.0004 10C15.0882 8.78555 13.6358 8 12 8C10.3642 8 8.91184 8.78555 7.99963 10C7.37194 10.8357 7 11.8744 7 13C7 14.1256 7.37194 15.1643 7.99963 16C8.91184 17.2144 10.3642 18 12 18C13.6358 18 15.0882 17.2144 16.0004 16C16.6281 15.1643 17 14.1256 17 13C17 11.8744 16.6281 10.8357 16.0004 10ZM24 7C24 5.34315 22.6569 4 21 4H17C17 2.89543 16.1046 2 15 2H9C7.89543 2 7 2.89543 7 4H3C1.34315 4 0 5.34315 0 7V19C0 20.6569 1.34315 22 3 22H21C22.6569 22 24 20.6569 24 19V7ZM12 15C13.1046 15 14 14.1046 14 13C14 11.8954 13.1046 11 12 11C10.8954 11 10 11.8954 10 13C10 14.1046 10.8954 15 12 15Z" />
</svg>