<!-- This Source Code Form is subject to the terms of the Mozilla Public
   - License, v. 2.0. If a copy of the MPL was not distributed with this
   - file, You can obtain one at http://mozilla.org/MPL/2.0/. -->
<svg width="22" height="24" viewBox="0 0 22 24" xmlns="http://www.w3.org/2000/svg">
    <path fill="context-fill" fill-opacity="context-fill-opacity" fill-rule="evenodd" clip-rule="evenodd"
        d="M0 6C0 3.79086 1.79086 2 4 2H6V1.5C6 0.671573 6.67157 0 7.5 0C8.32843 0 9 0.671573 9 1.5V2H13V1.5C13 0.671573 13.6716 0 14.5 0C15.3284 0 16 0.671573 16 1.5V2H18C20.2091 2 22 3.79086 22 6V20C22 22.2091 20.2091 24 18 24H4C1.79086 24 0 22.2091 0 20V6ZM4 5C3.44772 5 3 5.44772 3 6V20C3 20.5523 3.44772 21 4 21H18C18.5523 21 19 20.5523 19 20V6C19 5.44772 18.5523 5 18 5H16V5.5C16 6.32843 15.3284 7 14.5 7C13.6716 7 13 6.32843 13 5.5V5H9V5.5C9 6.32843 8.32843 7 7.5 7C6.67157 7 6 6.32843 6 5.5V5H4Z" />
    <path fill="context-fill" fill-opacity="context-fill-opacity"
        d="M14.4443 11.8003C15.1422 10.544 14.2338 9 12.7966 9H9C8.44771 9 8 9.44772 8 10C8 10.5523 8.44772 11 9 11H12.1841C12.2296 11 12.2664 11.0368 12.2664 11.0823C12.2664 11.0949 12.2635 11.1074 12.2579 11.1187L9.55704 16.5991C9.23889 17.2447 9.7087 18 10.4284 18C10.7812 18 11.1063 17.8087 11.2776 17.5003L14.4443 11.8003Z" />
</svg>