<!-- This Source Code Form is subject to the terms of the Mozilla Public
   - License, v. 2.0. If a copy of the MPL was not distributed with this
   - file, You can obtain one at http://mozilla.org/MPL/2.0/. -->
<svg width="24" height="24" viewBox="0 0 24 24" xmlns="http://www.w3.org/2000/svg">
    <g clip-path="url(#clip0)">
        <path fill="context-fill" fill-opacity="context-fill-opacity" fill-rule="evenodd" clip-rule="evenodd"
            d="M1 6C1 3.79086 2.79086 2 5 2H7V1.5C7 0.671573 7.67157 0 8.5 0C9.32843 0 10 0.671573 10 1.5V2H14V1.5C14 0.671573 14.6716 0 15.5 0C16.3284 0 17 0.671573 17 1.5V2H19C21.2091 2 23 3.79086 23 6V20C23 22.2091 21.2091 24 19 24H5C2.79086 24 1 22.2091 1 20V6ZM5 5C4.44772 5 4 5.44772 4 6V20C4 20.5523 4.44772 21 5 21H19C19.5523 21 20 20.5523 20 20V6C20 5.44772 19.5523 5 19 5H17V5.5C17 6.32843 16.3284 7 15.5 7C14.6716 7 14 6.32843 14 5.5V5H10V5.5C10 6.32843 9.32843 7 8.5 7C7.67157 7 7 6.32843 7 5.5V5H5Z" />
        <path fill="context-fill" fill-opacity="context-fill-opacity" d="M4 9H20V12H4V9Z" />
    </g>
    <defs>
        <clipPath id="clip0">
            <rect width="24" height="24" fill="white" />
        </clipPath>
    </defs>
</svg>