<svg width="24" height="24" viewBox="0 0 24 24" fill="none" xmlns="http://www.w3.org/2000/svg">
<path fill-rule="evenodd" clip-rule="evenodd" d="M12 21C16.9706 21 21 16.9706 21 12C21 7.02944 16.9706 3 12 3C7.02944 3 3 7.02944 3 12C3 16.9706 7.02944 21 12 21ZM12 24C18.6274 24 24 18.6274 24 12C24 5.37258 18.6274 0 12 0C5.37258 0 0 5.37258 0 12C0 18.6274 5.37258 24 12 24Z" fill="black"/>
<path fill-rule="evenodd" clip-rule="evenodd" d="M11.25 6.375C11.8713 6.375 12.375 6.87868 12.375 7.5V12.272C12.375 12.3924 12.4327 12.5054 12.5303 12.5759L15.6593 14.8384C16.1627 15.2023 16.2757 15.9057 15.9117 16.4093C15.5476 16.9127 14.8443 17.0257 14.3408 16.6617L11.2119 14.3992C10.5293 13.9056 10.125 13.1144 10.125 12.272V7.5C10.125 6.87868 10.6287 6.375 11.25 6.375Z" fill="black"/>
</svg>
