<!-- This Source Code Form is subject to the terms of the Mozilla Public
   - License, v. 2.0. If a copy of the MPL was not distributed with this
   - file, You can obtain one at http://mozilla.org/MPL/2.0/. -->
<svg width="22" height="24" viewBox="0 0 22 24" xmlns="http://www.w3.org/2000/svg">
    <path fill="context-fill" fill-opacity="context-fill-opacity" fill-rule="evenodd" clip-rule="evenodd"
        d="M0 6C0 3.79086 1.79086 2 4 2H6V1.5C6 0.671573 6.67157 0 7.5 0C8.32843 0 9 0.671573 9 1.5V2H13V1.5C13 0.671573 13.6716 0 14.5 0C15.3284 0 16 0.671573 16 1.5V2H18C20.2091 2 22 3.79086 22 6V20C22 22.2091 20.2091 24 18 24H4C1.79086 24 0 22.2091 0 20V6ZM4 5C3.44772 5 3 5.44772 3 6V20C3 20.5523 3.44772 21 4 21H18C18.5523 21 19 20.5523 19 20V6C19 5.44772 18.5523 5 18 5H16V5.5C16 6.32843 15.3284 7 14.5 7C13.6716 7 13 6.32843 13 5.5V5H9V5.5C9 6.32843 8.32843 7 7.5 7C6.67157 7 6 6.32843 6 5.5V5H4Z" />
    <path fill="context-fill" fill-opacity="context-fill-opacity"
        d="M12.9998 10.1534C12.9998 9.51641 12.4833 9 11.8463 9C11.6184 9 11.3956 9.06752 11.206 9.19404L8.88668 10.7419C8.64509 10.9032 8.5 11.1744 8.5 11.4649V11.5489C8.5 12.1875 9.1967 12.582 9.74432 12.2534L10.9732 11.5161C10.9849 11.509 10.9999 11.5176 10.9998 11.5312V17C10.9998 17.5523 11.4475 18 11.9998 18C12.552 18 12.9998 17.5523 12.9998 17V10.1534Z" />
</svg>