<!-- This Source Code Form is subject to the terms of the Mozilla Public
   - License, v. 2.0. If a copy of the MPL was not distributed with this
   - file, You can obtain one at http://mozilla.org/MPL/2.0/. -->
<svg width="24" height="24" viewBox="0 0 24 24" xmlns="http://www.w3.org/2000/svg">
    <g clip-path="url(#clip0)">
        <path fill="context-fill" fill-opacity="context-fill-opacity" fill-rule="evenodd" clip-rule="evenodd"
            d="M1 6C1 3.79086 2.79086 2 5 2H7V1.5C7 0.671573 7.67157 0 8.5 0C9.32843 0 10 0.671573 10 1.5V2H14V1.5C14 0.671573 14.6716 0 15.5 0C16.3284 0 17 0.671573 17 1.5V2H19C21.2091 2 23 3.79086 23 6V20C23 22.2091 21.2091 24 19 24H5C2.79086 24 1 22.2091 1 20V6ZM5 5C4.44772 5 4 5.44772 4 6V20C4 20.5523 4.44772 21 5 21H19C19.5523 21 20 20.5523 20 20V6C20 5.44772 19.5523 5 19 5H17V5.5C17 6.32843 16.3284 7 15.5 7C14.6716 7 14 6.32843 14 5.5V5H10V5.5C10 6.32843 9.32843 7 8.5 7C7.67157 7 7 6.32843 7 5.5V5H5Z" />
        <path fill="context-fill" fill-opacity="context-fill-opacity" fill-rule="evenodd" clip-rule="evenodd"
            d="M16 14C16 14.6025 15.5523 15.0909 15 15.0909H11.4143L12.3737 16.1377C12.7643 16.5637 12.7643 17.2545 12.3737 17.6805C11.9832 18.1065 11.3501 18.1065 10.9596 17.6805L8.29289 14.7714C8.10536 14.5668 8 14.2893 8 14C8 13.7107 8.10536 13.4332 8.29289 13.2286L10.9596 10.3195C11.3501 9.89349 11.9832 9.89349 12.3737 10.3195C12.7643 10.7456 12.7643 11.4363 12.3737 11.8623L11.4143 12.9091H15C15.5523 12.9091 16 13.3975 16 14Z" />
    </g>
    <defs>
        <clipPath id="clip0">
            <rect width="24" height="24" fill="white" />
        </clipPath>
    </defs>
</svg>