<!-- This Source Code Form is subject to the terms of the Mozilla Public
   - License, v. 2.0. If a copy of the MPL was not distributed with this
   - file, You can obtain one at http://mozilla.org/MPL/2.0/. -->
<svg width="664" height="90" viewBox="0 0 664 90" fill="none" xmlns="http://www.w3.org/2000/svg">
    <rect x="188" y="45" width="476" height="45" fill="#2C2C2C" />
    <path d="M664 0H0V90H188V56.9988C188.001 50.3719 193.373 45 200 45H664V0Z" fill="white" />
    <rect width="664" height="45" fill="white" />
    <path fill-rule="evenodd" clip-rule="evenodd"
        d="M24.7071 14.2928C25.0976 14.6834 25.0976 15.3166 24.7071 15.7072L19.4142 21H31C31.5522 21 32 21.4478 32 22C32 22.5522 31.5522 23 31 23H19.4142L24.7071 28.2928C25.0976 28.6834 25.0976 29.3166 24.7071 29.7072C24.3166 30.0976 23.6834 30.0976 23.2929 29.7072L16.2929 22.7072C15.9024 22.3166 15.9024 21.6834 16.2929 21.2928L23.2929 14.2928C23.6834 13.9024 24.3166 13.9024 24.7071 14.2928Z"
        fill="#3C3C3C" />
    <path opacity="0.5" fill-rule="evenodd" clip-rule="evenodd"
        d="M57.2929 14.2928C56.9024 14.6834 56.9024 15.3166 57.2929 15.7072L62.5858 21H51C50.4478 21 50 21.4478 50 22C50 22.5522 50.4478 23 51 23H62.5858L57.2929 28.2928C56.9024 28.6834 56.9024 29.3166 57.2929 29.7072C57.6834 30.0976 58.3166 30.0976 58.7071 29.7072L65.7071 22.7072C66.0976 22.3166 66.0976 21.6834 65.7071 21.2928L58.7071 14.2928C58.3166 13.9024 57.6834 13.9024 57.2929 14.2928Z"
        fill="#3C3C3C" />
    <path
        d="M88.9878 16.7383C90.077 16.1156 91.3281 15.8784 92.554 16.0587C93.7802 16.2391 94.9226 16.8285 95.8068 17.7458C96.1921 18.1456 96.5694 18.5975 96.8859 19H96.3141H94.0003C93.7351 19 93.4807 19.1054 93.2932 19.2929C93.1057 19.4804 93.0003 19.7348 93.0003 20C93.0003 20.2652 93.1057 20.5196 93.2932 20.7071C93.4807 20.8946 93.7351 21 94.0003 21H99.0003C99.2655 21 99.5199 20.8946 99.7074 20.7071C99.8949 20.5196 100 20.2652 100 20V15C100 14.7348 99.8949 14.4804 99.7074 14.2929C99.5199 14.1054 99.2655 14 99.0003 14C98.7351 14 98.4807 14.1054 98.2932 14.2929C98.1056 14.4804 98.0003 14.7348 98.0003 15V17.1998C97.7648 16.9193 97.5098 16.6307 97.2468 16.3579C96.0615 15.1281 94.5174 14.326 92.845 14.08C91.1723 13.834 89.4697 14.159 87.9951 15.002C86.5213 15.8446 85.3584 17.1568 84.6749 18.735C83.9915 20.3128 83.8219 22.0756 84.1898 23.7597C84.5578 25.4441 85.445 26.9651 86.725 28.0903C88.0057 29.2161 89.6097 29.8839 91.2965 29.9862C92.9835 30.0885 94.6535 29.6192 96.0545 28.6542C96.0774 28.6384 96.0998 28.6216 96.1214 28.6039L95.4872 27.8307L96.1214 28.6038H96.1215L96.1217 28.6036L96.1224 28.603L96.1249 28.6009L96.1342 28.5933L96.1687 28.5649C96.1984 28.5403 96.241 28.505 96.2937 28.4611C96.3988 28.3734 96.5444 28.2511 96.7063 28.1126C97.0226 27.8419 97.427 27.4872 97.7071 27.2071C98.0976 26.8166 98.0976 26.1834 97.7071 25.7929C97.3166 25.4024 96.6834 25.4024 96.2929 25.7929C96.073 26.0128 95.721 26.3234 95.4059 26.5931C95.2521 26.7247 95.1132 26.8413 95.0129 26.925C94.9627 26.9668 94.9224 27.0003 94.8947 27.0231L94.8859 27.0304C93.8554 27.7293 92.6398 28.064 91.4176 27.9899C90.1818 27.9149 88.9979 27.4254 88.0455 26.5882C87.0925 25.7504 86.4225 24.609 86.1437 23.3329C85.8649 22.0565 85.9942 20.7212 86.5101 19.5299C87.0259 18.339 87.8979 17.3613 88.9878 16.7383Z"
        fill="#3C3C3C" />
    <path d="M188 45H0V90H188V45Z" fill="white" />
    <path d="M188 45V56.9988C188.001 50.3719 193.373 45 200 45H188Z" fill="white" />
    <rect x="164" y="8" width="436" height="28" rx="8" fill="#F1F2F2" />
    <circle opacity="0.8" cx="181" cy="22" r="7" fill="#3C3C3C" />
    <rect opacity="0.8" x="198" y="19" width="220" height="6" rx="3" fill="#3C3C3C" />
    <path fill-rule="evenodd" clip-rule="evenodd"
        d="M139.663 14.0684C139.771 14.0231 139.885 14 140 14C140.115 14 140.229 14.0231 140.337 14.0684L145.385 16.1534C145.755 16.3061 146 16.6955 146 17.1304V22C146 24.5528 144.47 26.5568 143.15 27.8288C142.47 28.4839 141.795 28.9948 141.292 29.3414C141.039 29.5154 140.827 29.6497 140.676 29.7417C140.6 29.7878 140.54 29.8234 140.497 29.8481C140.476 29.8605 140.459 29.8702 140.446 29.8772L140.431 29.8856L140.43 29.8864C140.163 30.0359 139.847 30.0386 139.576 29.8898L139.573 29.8882L139.57 29.8864L139.569 29.8856L139.554 29.8772C139.541 29.8702 139.524 29.8605 139.503 29.8481C139.46 29.8234 139.4 29.7878 139.324 29.7417C139.173 29.6497 138.961 29.5154 138.708 29.3414C138.205 28.9948 137.53 28.4839 136.85 27.8288C135.53 26.5568 134 24.5528 134 22V17.1304C134 16.6955 134.245 16.3061 134.615 16.1534L139.663 14.0684ZM140 14C139.885 14 139.771 14.0231 139.663 14.0684L139.667 14.0664C139.775 14.0219 139.888 14 140 14ZM140.947 27.0865C141.25 26.8494 141.577 26.572 141.902 26.2582C143.109 25.0953 144.105 23.6211 144.105 22V17.8536L140.947 16.5492V27.0865Z"
        fill="#3C3C3C" />
    <path
        d="M636 23C636 24.1046 635.105 25 634 25C632.895 25 632 24.1046 632 23C632 21.8954 632.895 21 634 21C635.105 21 636 21.8954 636 23Z"
        fill="#3C3C3C" />
    <path
        d="M642 23C642 24.1046 641.105 25 640 25C638.895 25 638 24.1046 638 23C638 21.8954 638.895 21 640 21C641.105 21 642 21.8954 642 23Z"
        fill="#3C3C3C" />
    <path
        d="M648 23C648 24.1046 647.105 25 646 25C644.895 25 644 24.1046 644 23C644 21.8954 644.895 21 646 21C647.105 21 648 21.8954 648 23Z"
        fill="#3C3C3C" />
    <path fill-rule="evenodd" clip-rule="evenodd"
        d="M636 23C636 24.1046 635.105 25 634 25C632.895 25 632 24.1046 632 23C632 21.8954 632.895 21 634 21C635.105 21 636 21.8954 636 23ZM642 23C642 24.1046 641.105 25 640 25C638.895 25 638 24.1046 638 23C638 21.8954 638.895 21 640 21C641.105 21 642 21.8954 642 23ZM646 25C647.105 25 648 24.1046 648 23C648 21.8954 647.105 21 646 21C644.895 21 644 21.8954 644 23C644 24.1046 644.895 25 646 25Z"
        fill="#3C3C3C" />
    <rect x="42" y="64" width="77" height="6" rx="3" fill="#3C3C3C" />
    <rect x="16" y="59" width="16" height="16" rx="8" fill="#3C3C3C" />
</svg>