<svg width="62" height="62" viewBox="0 0 62 62" fill="none" xmlns="http://www.w3.org/2000/svg">
<g clip-path="url(#clip0)">
<rect x="30" y="8" width="17" height="43" rx="5" fill="#480081"/>
<path fill-rule="evenodd" clip-rule="evenodd" d="M29.6928 0.26497C30.1113 0.0893885 30.5544 3.90238e-05 31 1.26744e-08C31.4456 3.88621e-05 31.8887 0.0893885 32.3072 0.26497L51.8679 8.34442C53.3006 8.93624 54.25 10.4449 54.25 12.1305V31C54.25 40.8921 48.321 48.6576 43.207 53.5866C40.5728 56.1252 37.9559 58.1049 36.0049 59.4479C35.0256 60.1222 34.2041 60.6427 33.6192 60.9992C33.3265 61.1777 33.0922 61.3157 32.9264 61.4115C32.8432 61.4596 32.7773 61.497 32.7295 61.5241L32.6714 61.5567L32.6657 61.5598C31.6332 62.1392 30.4053 62.1496 29.3583 61.573L29.3469 61.5668L29.3343 61.5598L29.3286 61.5567L29.2705 61.5241C29.2227 61.497 29.1568 61.4596 29.0736 61.4115C28.9078 61.3157 28.6735 61.1777 28.3808 60.9992C27.7959 60.6427 26.9744 60.1222 25.9951 59.4479C24.0441 58.1049 21.4273 56.1252 18.7931 53.5866C13.6791 48.6576 7.75 40.8921 7.75 31V12.1305C7.75 10.4449 8.69922 8.93624 10.1321 8.34442L29.6928 0.26497ZM31 1.26744e-08C30.5544 3.90238e-05 30.1113 0.0893885 29.6928 0.26497L29.7109 0.257475C30.1289 0.0848362 30.5655 -3.7868e-05 31 1.26744e-08ZM34.6712 50.7101C35.8435 49.7914 37.1104 48.7165 38.3721 47.5005C43.0474 42.9944 46.9079 37.2819 46.9079 31V14.9326L34.6712 9.87823V50.7101Z" fill="#A84BFF"/>
</g>
<defs>
<clipPath id="clip0">
<rect width="62" height="62" fill="white"/>
</clipPath>
</defs>
</svg>
