<svg width="62" height="62" viewBox="0 0 62 62" fill="none" xmlns="http://www.w3.org/2000/svg">
<path fill-rule="evenodd" clip-rule="evenodd" d="M31.0013 62C29.4448 62 28.1831 60.6988 28.1831 59.0938V40.9226L25.4789 43.711C24.3783 44.8462 22.594 44.8462 21.4934 43.711C20.3928 42.5762 20.3928 40.7363 21.4934 39.6012L29.0085 31.8512C29.5371 31.3061 30.2539 31 31.0013 31C31.7487 31 32.4655 31.3061 32.9941 31.8512L40.5093 39.6012C41.6098 40.7363 41.6098 42.5762 40.5093 43.711C39.4085 44.8462 37.6242 44.8462 36.5237 43.711L33.8195 40.9226V59.0938C33.8195 60.6988 32.5578 62 31.0013 62Z" fill="#008337"/>
<path fill-rule="evenodd" clip-rule="evenodd" d="M10.3333 12.9166H51.6667C53.0934 12.9166 54.25 14.0732 54.25 15.5V43.9166C54.25 45.3434 53.0934 46.5 51.6667 46.5H50.375C48.235 46.5 46.5 48.2349 46.5 50.375C46.5 52.515 48.235 54.25 50.375 54.25H51.6667C57.3735 54.25 62 49.6235 62 43.9166V15.5C62 9.79301 57.3735 5.16663 51.6667 5.16663H10.3333C4.62639 5.16663 0 9.79301 0 15.5V43.9166C0 49.6235 4.62639 54.25 10.3333 54.25H11.625C13.7651 54.25 15.5 52.515 15.5 50.375C15.5 48.2349 13.7651 46.5 11.625 46.5H10.3333C8.90661 46.5 7.75 45.3434 7.75 43.9166V15.5C7.75 14.0732 8.90658 12.9166 10.3333 12.9166Z" fill="#00D55B"/>
</svg>
