<svg width="62" height="62" viewBox="0 0 62 62" fill="none" xmlns="http://www.w3.org/2000/svg">
<path d="M15.2928 6.69771L13.5142 1.36164C12.909 -0.453879 10.341 -0.453879 9.73581 1.36164L7.95716 6.69771C7.75894 7.29231 7.29231 7.75894 6.69771 7.95716L1.36164 9.73581C-0.453879 10.341 -0.453879 12.909 1.36164 13.5142L6.69771 15.2928C7.29231 15.4911 7.75894 15.9577 7.95716 16.5523L9.73581 21.8884C10.341 23.7039 12.909 23.7039 13.5142 21.8884L15.2928 16.5523C15.4911 15.9577 15.9577 15.4911 16.5523 15.2928L21.8884 13.5142C23.7039 12.909 23.7039 10.341 21.8884 9.73581L16.5523 7.95716C15.9577 7.75894 15.4911 7.29231 15.2928 6.69771Z" fill="#FFD75C"/>
<path d="M15.2928 45.4476L13.5142 40.1117C12.909 38.2961 10.341 38.2961 9.73581 40.1117L7.95716 45.4476C7.75894 46.0422 7.29231 46.509 6.69771 46.7072L1.36164 48.4858C-0.453879 49.0908 -0.453879 51.6592 1.36164 52.2639L6.69771 54.0426C7.29231 54.241 7.75894 54.7075 7.95716 55.3025L9.73581 60.6383C10.341 62.4536 12.909 62.4536 13.5142 60.6383L15.2928 55.3025C15.4911 54.7075 15.9577 54.241 16.5523 54.0426L21.8884 52.2639C23.7039 51.6592 23.7039 49.0908 21.8884 48.4858L16.5523 46.7072C15.9577 46.509 15.4911 46.0422 15.2928 45.4476Z" fill="#FFD75C"/>
<path d="M46.0856 19.5029L42.5284 7.05215C41.3178 2.81595 36.1819 2.81595 34.9716 7.05215L31.4144 19.5029C31.0178 20.8904 30.0847 21.9792 28.8954 22.4417L18.2233 26.592C14.5922 28.0041 14.5922 33.9959 18.2233 35.4079L28.8954 39.5583C30.0847 40.021 31.0178 41.1096 31.4144 42.4971L34.9716 54.948C36.1819 59.1842 41.3178 59.1842 42.5284 54.948L46.0856 42.4971C46.4822 41.1096 47.4153 40.021 48.6044 39.5583L59.2766 35.4079C62.9078 33.9959 62.9078 28.0041 59.2766 26.592L48.6044 22.4417C47.4153 21.9792 46.4822 20.8904 46.0856 19.5029Z" fill="#FFBE18"/>
</svg>
