<svg width="16" height="16" viewBox="0 0 16 16" xmlns="http://www.w3.org/2000/svg">
    <path
        d="M15 0.00012207C15.5523 0.00012207 16 0.447837 16 1.00012V6.00012C16 6.55241 15.5523 7.00012 15 7.00012H9.99998C9.44774 7.00012 9.00002 6.55241 9.00002 6.00012C9.00002 5.44784 9.44774 5.00012 9.99998 5.00012H12.5039C12.725 5.00012 12.8355 5.00012 12.9033 4.94713C12.9592 4.90349 12.9977 4.82682 12.9994 4.75595C13.0014 4.6699 12.9396 4.58699 12.8162 4.42116C11.7226 2.95186 9.97243 2.00012 8.00002 2.00012C5.02557 2.00012 2.55663 4.16454 2.08228 7.00431C1.99129 7.54905 1.55231 8.00012 1.00003 8.00012C0.44774 8.00012 -0.0065318 7.55016 0.0616709 7.00211C0.552887 3.05483 3.91972 0.00012207 8.00002 0.00012207C10.0091 0.00012207 11.8451 0.740668 13.2501 1.96368C13.5189 2.19762 13.6533 2.3146 13.7425 2.31729C13.8247 2.31977 13.8914 2.28941 13.9435 2.22579C14 2.1567 14 1.98807 14 1.6508V1.00012C14 0.447837 14.4478 0.00012207 15 0.00012207Z"
        fill="context-fill" fill-opacity="context-fill-opacity" />
    <path
        d="M1 16C0.447715 16 0 15.5523 0 15V10C0 9.44772 0.447715 9 1 9H6C6.55228 9 7 9.44772 7 10C7 10.5523 6.55228 11 6 11H3.49619C3.27509 11 3.16455 11 3.09672 11.053C3.04086 11.0966 3.00235 11.1733 3.00069 11.2442C2.99868 11.3302 3.0604 11.4131 3.18383 11.579C4.27747 13.0483 6.02759 14 8 14C10.9745 14 13.4434 11.8356 13.9177 8.99581C14.0087 8.45108 14.4477 8 15 8C15.5523 8 16.0066 8.44996 15.9384 8.99801C15.4471 12.9453 12.0803 16 8 16C5.99098 16 4.15493 15.2595 2.74993 14.0364C2.48117 13.8025 2.34679 13.6855 2.25753 13.6828C2.17535 13.6804 2.10866 13.7107 2.05657 13.7743C2 13.8434 2 14.0121 2 14.3493V15C2 15.5523 1.55228 16 1 16Z"
        fill="context-fill" fill-opacity="context-fill-opacity" />
</svg>