<svg xmlns="http://www.w3.org/2000/svg" width="16" height="16" viewBox="0 0 16 16">
    <path fill="context-fill" fill-opacity="context-fill-opacity"
        d="M2 2C1.44772 2 1 2.44772 1 3C1 3.55228 1.44772 4 2 4H14C14.5523 4 15 3.55228 15 3C15 2.44772 14.5523 2 14 2H2Z" />
    <path fill="context-fill" fill-opacity="context-fill-opacity"
        d="M1 8C1 7.44772 1.44772 7 2 7H14C14.5523 7 15 7.44772 15 8C15 8.55228 14.5523 9 14 9H2C1.44772 9 1 8.55228 1 8Z" />
    <path fill="context-fill" fill-opacity="context-fill-opacity"
        d="M1 13C1 12.4477 1.44772 12 2 12H14C14.5523 12 15 12.4477 15 13C15 13.5523 14.5523 14 14 14H2C1.44772 14 1 13.5523 1 13Z" />
</svg>