<svg xmlns="http://www.w3.org/2000/svg" width="16" height="16" viewBox="0 0 16 16">
    <path
        d="M9 1C9 0.447715 8.55228 0 8 0C7.44772 0 7 0.447715 7 1V8.10294C7 8.28113 6.78457 8.37036 6.65858 8.24436L4.70711 6.29289C4.31658 5.90237 3.68342 5.90237 3.29289 6.29289C2.90237 6.68342 2.90237 7.31658 3.29289 7.70711L7.29289 11.7071C7.68342 12.0976 8.31658 12.0976 8.70711 11.7071L12.7071 7.70711C13.0976 7.31658 13.0976 6.68342 12.7071 6.29289C12.3166 5.90237 11.6834 5.90237 11.2929 6.29289L9.34142 8.24437C9.21543 8.37036 9 8.28113 9 8.10294V1Z"
        fill="context-fill" fill-opacity="context-fill-opacity" />
    <path
        d="M3 14C2.44772 14 2 14.4477 2 15C2 15.5523 2.44772 16 3 16H13C13.5523 16 14 15.5523 14 15C14 14.4477 13.5523 14 13 14H3Z"
        fill="context-fill" fill-opacity="context-fill-opacity" />
</svg>