<svg width="257" height="56" viewBox="0 0 257 56" fill="none" xmlns="http://www.w3.org/2000/svg">
<path d="M11.987 44.4059H0V11H11.668C14.9496 11 17.8362 11.7159 20.3278 13.1478C22.8194 14.5493 24.7641 16.5143 26.1618 19.043C27.5899 21.5412 28.304 24.4507 28.304 27.7715C28.304 31.0314 27.6051 33.9256 26.2074 36.4543C24.84 38.9525 22.9258 40.9023 20.4645 42.3038C18.0337 43.7052 15.2079 44.4059 11.987 44.4059ZM5.83399 13.6962V41.7554L3.05373 39.0134H11.4401C13.6582 39.0134 15.5725 38.5565 17.1829 37.6425C18.7933 36.7285 20.024 35.4337 20.8747 33.7581C21.7255 32.0824 22.1509 30.0869 22.1509 27.7715C22.1509 25.3952 21.7103 23.3692 20.8292 21.6935C19.948 19.9875 18.687 18.6774 17.0462 17.7634C15.4054 16.8495 13.4303 16.3925 11.121 16.3925H3.05373L5.83399 13.6962Z" fill="white"/>
<path d="M31.5963 33.0726C31.5963 30.7267 32.1128 28.6703 33.1459 26.9032C34.179 25.1057 35.6071 23.7043 37.4303 22.6989C39.2534 21.6935 41.3196 21.1909 43.6289 21.1909C45.9685 21.1909 48.0348 21.6935 49.8275 22.6989C51.6506 23.7043 53.0787 25.1057 54.1118 26.9032C55.1449 28.6703 55.6615 30.7267 55.6615 33.0726C55.6615 35.4185 55.1449 37.4901 54.1118 39.2876C53.0787 41.0547 51.6506 42.4409 49.8275 43.4462C48.0348 44.4516 45.9685 44.9543 43.6289 44.9543C41.3196 44.9543 39.2534 44.4516 37.4303 43.4462C35.6071 42.4409 34.179 41.0547 33.1459 39.2876C32.1128 37.4901 31.5963 35.4185 31.5963 33.0726ZM37.1568 33.0726C37.1568 34.4435 37.4303 35.647 37.9772 36.6828C38.5545 37.7186 39.3142 38.526 40.2561 39.1048C41.2284 39.6837 42.3527 39.9731 43.6289 39.9731C44.9051 39.9731 46.0293 39.6837 47.0016 39.1048C47.974 38.526 48.7336 37.7186 49.2806 36.6828C49.8275 35.647 50.101 34.4435 50.101 33.0726C50.101 31.6711 49.8275 30.4677 49.2806 29.4624C48.7336 28.4265 47.974 27.6192 47.0016 27.0403C46.0293 26.4615 44.9051 26.172 43.6289 26.172C42.3527 26.172 41.2284 26.4615 40.2561 27.0403C39.3142 27.6192 38.5545 28.4265 37.9772 29.4624C37.4303 30.4677 37.1568 31.6711 37.1568 33.0726Z" fill="white"/>
<path d="M57.6131 21.8306H71.8335V26.4919H57.6131V21.8306ZM67.5036 44.4059H61.9431V14.793H67.5036V44.4059Z" fill="white"/>
<path d="M94.275 11V44.4059H88.441V11H94.275ZM101.659 30.1935H92.4974V25.2581H101.34C102.95 25.2581 104.181 24.862 105.031 24.0699C105.882 23.2473 106.308 22.0896 106.308 20.5968C106.308 19.1649 105.867 18.0681 104.986 17.3065C104.105 16.5448 102.828 16.164 101.157 16.164H92.3151V11H101.659C104.971 11 107.569 11.8073 109.452 13.422C111.336 15.0367 112.278 17.2455 112.278 20.0484C112.278 22.0591 111.792 23.75 110.82 25.121C109.847 26.4615 108.404 27.4364 106.49 28.0457V27.4059C108.556 27.8934 110.121 28.8073 111.184 30.1479C112.248 31.4884 112.78 33.2249 112.78 35.3575C112.78 37.2464 112.354 38.8763 111.503 40.2473C110.653 41.5878 109.407 42.6237 107.766 43.3548C106.156 44.0556 104.211 44.4059 101.932 44.4059H92.3151V39.2419H101.659C103.33 39.2419 104.606 38.8459 105.487 38.0538C106.368 37.2616 106.809 36.1192 106.809 34.6263C106.809 33.2249 106.353 32.1434 105.442 31.3817C104.56 30.5896 103.299 30.1935 101.659 30.1935Z" fill="white"/>
<path d="M131.438 21.7392V26.9032H129.387C127.351 26.9032 125.756 27.4516 124.601 28.5484C123.446 29.6147 122.869 31.2446 122.869 33.4382V44.4059H117.309V21.8763H122.55L123.006 26.5376H122.459C122.763 25.0448 123.477 23.8262 124.601 22.8817C125.725 21.9373 127.184 21.4651 128.977 21.4651C129.372 21.4651 129.767 21.4803 130.162 21.5108C130.557 21.5412 130.982 21.6174 131.438 21.7392Z" fill="white"/>
<path d="M133.123 33.0726C133.123 30.7267 133.64 28.6703 134.673 26.9032C135.706 25.1057 137.134 23.7043 138.957 22.6989C140.78 21.6935 142.846 21.1909 145.156 21.1909C147.495 21.1909 149.562 21.6935 151.354 22.6989C153.177 23.7043 154.606 25.1057 155.639 26.9032C156.672 28.6703 157.188 30.7267 157.188 33.0726C157.188 35.4185 156.672 37.4901 155.639 39.2876C154.606 41.0547 153.177 42.4409 151.354 43.4462C149.562 44.4516 147.495 44.9543 145.156 44.9543C142.846 44.9543 140.78 44.4516 138.957 43.4462C137.134 42.4409 135.706 41.0547 134.673 39.2876C133.64 37.4901 133.123 35.4185 133.123 33.0726ZM138.684 33.0726C138.684 34.4435 138.957 35.647 139.504 36.6828C140.081 37.7186 140.841 38.526 141.783 39.1048C142.755 39.6837 143.88 39.9731 145.156 39.9731C146.432 39.9731 147.556 39.6837 148.529 39.1048C149.501 38.526 150.26 37.7186 150.807 36.6828C151.354 35.647 151.628 34.4435 151.628 33.0726C151.628 31.6711 151.354 30.4677 150.807 29.4624C150.26 28.4265 149.501 27.6192 148.529 27.0403C147.556 26.4615 146.432 26.172 145.156 26.172C143.88 26.172 142.755 26.4615 141.783 27.0403C140.841 27.6192 140.081 28.4265 139.504 29.4624C138.957 30.4677 138.684 31.6711 138.684 33.0726Z" fill="white"/>
<path d="M165.496 44.4059L158.203 21.8306H163.992L166.954 31.5188C167.197 32.4023 167.44 33.3315 167.683 34.3065C167.926 35.2814 168.139 36.302 168.321 37.3683C168.473 36.6371 168.61 35.9668 168.732 35.3575C168.884 34.7482 169.051 34.1541 169.233 33.5753C169.415 32.966 169.628 32.2805 169.871 31.5188L172.97 21.8306H178.622L181.63 31.5188C181.691 31.7321 181.782 32.0977 181.904 32.6156C182.056 33.103 182.208 33.6362 182.36 34.2151C182.511 34.7939 182.648 35.3728 182.77 35.9516C182.922 36.5 183.028 36.9722 183.089 37.3683C183.21 36.7894 183.362 36.1344 183.545 35.4032C183.727 34.672 183.909 33.9713 184.091 33.3011C184.304 32.6004 184.471 32.0063 184.593 31.5188L187.601 21.8306H193.481L185.687 44.4059H180.491L177.392 34.6263C176.936 33.1335 176.571 31.8692 176.298 30.8333C176.024 29.767 175.842 28.9444 175.751 28.3656C175.66 28.914 175.492 29.6452 175.249 30.5591C175.006 31.4731 174.596 32.8593 174.019 34.7177L170.919 44.4059H165.496Z" fill="white"/>
<path d="M194.671 37.5511H199.958C199.988 38.526 200.353 39.3029 201.052 39.8817C201.75 40.4606 202.723 40.75 203.969 40.75C205.305 40.75 206.308 40.5063 206.977 40.0188C207.676 39.5314 208.025 38.8763 208.025 38.0538C208.025 37.5054 207.843 37.0179 207.478 36.5914C207.113 36.1649 206.43 35.845 205.427 35.6317L201.371 34.672C199.335 34.2151 197.815 33.4839 196.813 32.4785C195.84 31.4427 195.354 30.026 195.354 28.2285C195.354 26.7661 195.734 25.5018 196.494 24.4355C197.284 23.3692 198.347 22.5618 199.684 22.0134C201.021 21.4346 202.556 21.1452 204.288 21.1452C205.959 21.1452 207.432 21.4498 208.709 22.0591C209.985 22.6685 210.972 23.5215 211.671 24.6183C212.4 25.7151 212.78 26.9946 212.811 28.457H207.524C207.524 27.4821 207.22 26.7204 206.612 26.172C206.004 25.5932 205.154 25.3038 204.06 25.3038C202.966 25.3038 202.115 25.5475 201.507 26.0349C200.9 26.5224 200.596 27.1774 200.596 28C200.596 29.2491 201.568 30.1022 203.513 30.5591L207.569 31.5188C209.453 31.9453 210.866 32.6308 211.808 33.5753C212.78 34.5197 213.266 35.8602 213.266 37.5968C213.266 39.1201 212.871 40.4453 212.081 41.5726C211.291 42.6694 210.182 43.5224 208.754 44.1317C207.326 44.7106 205.685 45 203.832 45C201.036 45 198.803 44.3145 197.132 42.9435C195.491 41.5726 194.671 39.7751 194.671 37.5511Z" fill="white"/>
<path d="M227.573 45C225.355 45 223.38 44.4973 221.648 43.4919C219.946 42.4561 218.609 41.0547 217.637 39.2876C216.665 37.4901 216.178 35.4337 216.178 33.1183C216.178 30.7724 216.649 28.7007 217.591 26.9032C218.533 25.1057 219.855 23.7043 221.557 22.6989C223.258 21.6631 225.203 21.1452 227.391 21.1452C229.67 21.1452 231.629 21.6326 233.27 22.6075C234.911 23.552 236.172 24.8772 237.053 26.5833C237.965 28.2894 238.421 30.3306 238.421 32.707V34.3979L219.095 34.4435L219.187 30.879H232.906C232.906 29.3253 232.404 28.0762 231.402 27.1317C230.429 26.1873 229.107 25.7151 227.436 25.7151C226.13 25.7151 225.021 25.9892 224.109 26.5376C223.228 27.086 222.559 27.9086 222.104 29.0054C221.648 30.1022 221.42 31.4427 221.42 33.0269C221.42 35.4642 221.936 37.3074 222.97 38.5565C224.033 39.8056 225.598 40.4301 227.664 40.4301C229.183 40.4301 230.429 40.1407 231.402 39.5618C232.404 38.983 233.058 38.1604 233.361 37.0941H238.512C238.026 39.5618 236.81 41.4964 234.865 42.8979C232.951 44.2993 230.52 45 227.573 45Z" fill="white"/>
<path d="M257 21.7392V26.9032H254.949C252.913 26.9032 251.318 27.4516 250.163 28.5484C249.009 29.6147 248.431 31.2446 248.431 33.4382V44.4059H242.871V21.8763H248.112L248.568 26.5376H248.021C248.325 25.0448 249.039 23.8262 250.163 22.8817C251.288 21.9373 252.746 21.4651 254.539 21.4651C254.934 21.4651 255.329 21.4803 255.724 21.5108C256.119 21.5412 256.544 21.6174 257 21.7392Z" fill="white"/>
</svg>
