<!--
  Icon that appears in the tool bar
-->

<svg width="24" height="24" viewBox="0 0 24 24" fill="none" xmlns="http://www.w3.org/2000/svg">
<g clip-path="url(#clip0)">
<path fill-rule="evenodd" clip-rule="evenodd" d="M11.494 0.102569C11.656 0.034602 11.8275 1.5106e-05 12 4.90623e-09C12.1725 1.50434e-05 12.344 0.034602 12.506 0.102569L20.0779 3.2301C20.6325 3.45919 21 4.04321 21 4.69566V12C21 15.8292 18.7048 18.8352 16.7253 20.7432C15.7056 21.7259 14.6926 22.4922 13.9374 23.0121C13.5583 23.2731 13.2403 23.4746 13.0139 23.6126C12.9006 23.6817 12.8099 23.7351 12.7457 23.7721C12.7135 23.7907 12.688 23.8053 12.6695 23.8158L12.647 23.8284L12.6448 23.8296C12.2451 24.0539 11.7698 24.0579 11.3645 23.8347L11.3601 23.8323L11.3552 23.8296L11.353 23.8284L11.3305 23.8158C11.312 23.8053 11.2865 23.7907 11.2543 23.7721C11.1901 23.7351 11.0994 23.6817 10.9861 23.6126C10.7597 23.4746 10.4417 23.2731 10.0626 23.0121C9.30739 22.4922 8.29443 21.7259 7.27476 20.7432C5.29512 18.8352 3 15.8292 3 12V4.69566C3 4.04321 3.36744 3.45919 3.92209 3.2301L11.494 0.102569ZM12 4.90623e-09C11.8275 1.5106e-05 11.656 0.034602 11.494 0.102569L11.501 0.0996676C11.6628 0.0328398 11.8318 -1.46586e-05 12 4.90623e-09ZM13.4211 19.6298C13.8749 19.2741 14.3653 18.858 14.8537 18.3873C16.6635 16.6429 18.1579 14.4317 18.1579 12V5.78035L13.4211 3.82383V19.6298Z" fill="context-fill" fill-opacity="context-fill-opacity"/>
</g>
<defs>
<clipPath id="clip0">
<rect width="24" height="24" fill="context-fill" fill-opacity="context-fill-opacity"/>
</clipPath>
</defs>
</svg>