<svg width="20" height="20" viewBox="0 0 20 20" fill="none" xmlns="http://www.w3.org/2000/svg">
<path fill-rule="evenodd" clip-rule="evenodd" d="M10 20C15.5228 20 20 15.5228 20 10C20 4.47715 15.5228 0 10 0C4.47715 0 0 4.47715 0 10C0 15.5228 4.47715 20 10 20ZM13.2242 16.7735C15.3923 15.7397 16.986 13.6955 17.3963 11.25H14.9207C14.7163 12.946 14.1413 14.7532 13.4844 16.2189C13.4 16.4072 13.3131 16.5925 13.2242 16.7735ZM6.77581 3.22646C4.60768 4.26033 3.01397 6.30452 2.6037 8.75H5.07932C5.28372 7.05398 5.85871 5.24681 6.51556 3.78111C6.59997 3.59276 6.68686 3.4075 6.77581 3.22646ZM7.60176 11.25C7.79478 12.5347 8.24461 13.964 8.79694 15.1965C9.1636 16.0147 9.54866 16.6853 9.88393 17.1289C9.92513 17.1834 9.96387 17.2322 10 17.2757C10.0361 17.2322 10.0749 17.1834 10.1161 17.1289C10.4513 16.6853 10.8364 16.0147 11.2031 15.1965C11.7554 13.964 12.2052 12.5347 12.3982 11.25H7.60176ZM5.07932 11.25C5.28372 12.946 5.85871 14.7532 6.51556 16.2189C6.59997 16.4072 6.68686 16.5925 6.77581 16.7735C4.60768 15.7397 3.01397 13.6955 2.6037 11.25H5.07932ZM12.3982 8.75H7.60176C7.79478 7.46528 8.24461 6.03599 8.79694 4.80352C9.1636 3.98535 9.54866 3.31472 9.88393 2.87113C9.92513 2.81662 9.96387 2.76783 10 2.72433C10.0361 2.76783 10.0749 2.81662 10.1161 2.87113C10.4513 3.31472 10.8364 3.98535 11.2031 4.80352C11.7554 6.03599 12.2052 7.46528 12.3982 8.75ZM14.9207 8.75C14.7163 7.05398 14.1413 5.24681 13.4844 3.78111C13.4 3.59276 13.3131 3.4075 13.2242 3.22646C15.3923 4.26034 16.986 6.30452 17.3963 8.75H14.9207Z" fill="white" fill-opacity="0.8"/>
</svg>