<!-- This Source Code Form is subject to the terms of the Mozilla Public
   - License, v. 2.0. If a copy of the MPL was not distributed with this
   - file, You can obtain one at http://mozilla.org/MPL/2.0/. -->
<svg width="32" height="32" viewBox="0 0 32 32" fill="none" xmlns="http://www.w3.org/2000/svg">
    <rect width="32" height="32" rx="3" fill="white" />
    <path d="M17 20C17 17.7909 18.7909 16 21 16H30V30H17V20Z" fill="#2C2C2C" />
    <path
        d="M29 1H3C1.89543 1 1 1.89543 1 3V29C1 30.1046 1.89543 31 3 31H29C30.1046 31 31 30.1046 31 29V3C31 1.89543 30.1046 1 29 1Z"
        stroke="#D5D5D5" stroke-width="2" stroke-linecap="round" stroke-linejoin="round" />
    <path fill-rule="evenodd" clip-rule="evenodd"
        d="M9.80936 6.1281C9.98021 6.299 9.98021 6.576 9.80936 6.7469L7.49372 9.0625H12.5625C12.8041 9.0625 13 9.2584 13 9.5C13 9.7416 12.8041 9.9375 12.5625 9.9375H7.49372L9.80936 12.2531C9.98021 12.424 9.98021 12.701 9.80936 12.8719C9.6385 13.0427 9.3615 13.0427 9.19064 12.8719L6.12814 9.8094C5.95729 9.6385 5.95729 9.3615 6.12814 9.1906L9.19064 6.1281C9.3615 5.9573 9.6385 5.9573 9.80936 6.1281Z"
        fill="#3C3C3C" />
    <path
        d="M20.2407 10.25C20.6498 10.25 20.9815 9.9142 20.9815 9.5C20.9815 9.0858 20.6498 8.75 20.2407 8.75C19.8316 8.75 19.5 9.0858 19.5 9.5C19.5 9.9142 19.8316 10.25 20.2407 10.25Z"
        fill="#3C3C3C" />
    <path
        d="M22.463 10.25C22.8721 10.25 23.2037 9.9142 23.2037 9.5C23.2037 9.0858 22.8721 8.75 22.463 8.75C22.0539 8.75 21.7222 9.0858 21.7222 9.5C21.7222 9.9142 22.0539 10.25 22.463 10.25Z"
        fill="#3C3C3C" />
    <path
        d="M24.7594 10.25C25.1685 10.25 25.5001 9.9142 25.5001 9.5C25.5001 9.0858 25.1685 8.75 24.7594 8.75C24.3503 8.75 24.0186 9.0858 24.0186 9.5C24.0186 9.9142 24.3503 10.25 24.7594 10.25Z"
        fill="#3C3C3C" />
    <circle cx="9.5" cy="22.5" r="3" stroke="#3C3C3C" />
</svg>