<!-- This Source Code Form is subject to the terms of the Mozilla Public
   - License, v. 2.0. If a copy of the MPL was not distributed with this
   - file, You can obtain one at http://mozilla.org/MPL/2.0/. -->

<svg
	width="16"
	height="16"
	viewBox="0 0 16 16"
	fill="context-fill"
	fill-opacity="context-fill-opacity"
	xmlns="http://www.w3.org/2000/svg"
>
	<path
		fill-rule="evenodd"
		clip-rule="evenodd"
		d="M8 4C8.55228 4 9 3.55228 9 3C9 2.44772 8.55228 2 8 2C7.44772 2 7 2.44772 7 3C7 3.55228 7.44772 4 8 4ZM8 5C9.10457 5 10 4.10457 10 3C10 1.89543 9.10457 1 8 1C6.89543 1 6 1.89543 6 3C6 4.10457 6.89543 5 8 5ZM3.5 6C2.67157 6 2 6.67157 2 7.5C2 8.32843 2.67157 9 3.5 9H4.73381C5.12246 9 5.36251 9.42399 5.16256 9.75725L3.76994 12.0783C3.24145 12.9591 3.49569 14.0995 4.34826 14.6724C5.32509 15.3289 6.65697 14.9654 7.16493 13.9038L8 12.1585L8.83507 13.9038C9.34303 14.9654 10.6749 15.3289 11.6517 14.6724C12.5043 14.0995 12.7585 12.9591 12.2301 12.0783L10.8374 9.75725C10.6375 9.42399 10.8775 9 11.2662 9H12.5C13.3284 9 14 8.32843 14 7.5C14 6.67157 13.3284 6 12.5 6H3.5ZM3 7.5C3 7.22386 3.22386 7 3.5 7H12.5C12.7761 7 13 7.22386 13 7.5C13 7.77614 12.7761 8 12.5 8H11.2662C10.1002 8 9.38008 9.27196 9.97995 10.2717L11.3726 12.5928C11.6272 13.0171 11.5047 13.5664 11.094 13.8424C10.6234 14.1587 9.98183 13.9836 9.73713 13.4721L8.90206 11.7269C8.53945 10.969 7.46055 10.969 7.09794 11.7268L6.26287 13.4721C6.01817 13.9836 5.37658 14.1587 4.90602 13.8424C4.49532 13.5664 4.37285 13.0171 4.62743 12.5928L6.02005 10.2717C6.61992 9.27196 5.89975 8 4.73381 8H3.5C3.22386 8 3 7.77614 3 7.5Z"
	/>
</svg>
