<!-- This Source Code Form is subject to the terms of the Mozilla Public
   - License, v. 2.0. If a copy of the MPL was not distributed with this
   - file, You can obtain one at http://mozilla.org/MPL/2.0/. -->

<svg
	width="16"
	height="16"
	viewBox="0 0 16 16"
	fill="context-fill"
	fill-opacity="context-fill-opacity"
	xmlns="http://www.w3.org/2000/svg"
>
	<path
		fill-rule="evenodd"
		clip-rule="evenodd"
		d="M2 8C2 11.3137 4.68629 14 8 14C9.47685 14 10.8291 13.4664 11.8744 12.5815L3.41847 4.12558C2.53358 5.17092 2 6.52315 2 8ZM12.5815 11.8744L4.12558 3.41847C5.17092 2.53358 6.52315 2 8 2C11.3137 2 14 4.68629 14 8C14 9.47685 13.4664 10.8291 12.5815 11.8744ZM1 8C1 11.866 4.13401 15 8 15C11.866 15 15 11.866 15 8C15 4.13401 11.866 1 8 1C4.13401 1 1 4.13401 1 8Z"
	/>
</svg>
