<!-- This Source Code Form is subject to the terms of the Mozilla Public
   - License, v. 2.0. If a copy of the MPL was not distributed with this
   - file, You can obtain one at http://mozilla.org/MPL/2.0/. -->

<svg
	width="16"
	height="16"
	viewBox="0 0 16 16"
	fill="context-fill"
	fill-opacity="context-fill-opacity"
	xmlns="http://www.w3.org/2000/svg"
>
	<path
		fill-rule="evenodd"
		clip-rule="evenodd"
		d="M5.5 2C4.11929 2 3 3.11929 3 4.5V5.88889C3 6.2264 2.7264 6.5 2.38889 6.5C1.62183 6.5 1 7.12183 1 7.88889V8.61111C1 9.37817 1.62183 10 2.38889 10C2.7264 10 3 10.2736 3 10.6111V11.5C3 12.8807 4.11929 14 5.5 14C5.77614 14 6 13.7761 6 13.5C6 13.2239 5.77614 13 5.5 13C4.67157 13 4 12.3284 4 11.5V10.6111C4 9.72132 3.27868 9 2.38889 9C2.17411 9 2 8.82589 2 8.61111V7.88889C2 7.67411 2.17411 7.5 2.38889 7.5C3.27868 7.5 4 6.77868 4 5.88889V4.5C4 3.67157 4.67157 3 5.5 3C5.77614 3 6 2.77614 6 2.5C6 2.22386 5.77614 2 5.5 2ZM10.5 14C11.8807 14 13 12.8807 13 11.5V10.1111C13 9.7736 13.2736 9.5 13.6111 9.5C14.3782 9.5 15 8.87817 15 8.11111V7.38889C15 6.62183 14.3782 6 13.6111 6C13.2736 6 13 5.7264 13 5.38889V4.5C13 3.11929 11.8807 2 10.5 2C10.2239 2 10 2.22386 10 2.5C10 2.77614 10.2239 3 10.5 3C11.3284 3 12 3.67157 12 4.5V5.38889C12 6.27868 12.7213 7 13.6111 7C13.8259 7 14 7.17411 14 7.38889V8.11111C14 8.32589 13.8259 8.5 13.6111 8.5C12.7213 8.5 12 9.22132 12 10.1111V11.5C12 12.3284 11.3284 13 10.5 13C10.2239 13 10 13.2239 10 13.5C10 13.7761 10.2239 14 10.5 14Z"
	/>
</svg>
