<!-- This Source Code Form is subject to the terms of the Mozilla Public
   - License, v. 2.0. If a copy of the MPL was not distributed with this
   - file, You can obtain one at http://mozilla.org/MPL/2.0/. -->

<svg
	width="16"
	height="16"
	viewBox="0 0 16 16"
	fill="context-fill"
	fill-opacity="context-fill-opacity"
	xmlns="http://www.w3.org/2000/svg"
>
	<path
		fill-rule="evenodd"
		clip-rule="evenodd"
		d="M6 3.5C6 3.22386 6.22386 3 6.5 3H9.5C9.77614 3 10 3.22386 10 3.5V5H6V3.5ZM5 5V3.5C5 2.67157 5.67157 2 6.5 2H9.5C10.3284 2 11 2.67157 11 3.5V5H12.5C13.8807 5 15 6.11929 15 7.5V12.5C15 13.8807 13.8807 15 12.5 15H3.5C2.11929 15 1 13.8807 1 12.5V7.5C1 6.11929 2.11929 5 3.5 5H5ZM10.5 6H5.5H3.5C2.67157 6 2 6.67157 2 7.5V12.5C2 13.3284 2.67157 14 3.5 14H12.5C13.3284 14 14 13.3284 14 12.5V7.5C14 6.67157 13.3284 6 12.5 6H10.5Z"
	/>
</svg>
