<!-- This Source Code Form is subject to the terms of the Mozilla Public
   - License, v. 2.0. If a copy of the MPL was not distributed with this
   - file, You can obtain one at http://mozilla.org/MPL/2.0/. -->

<svg
	width="16"
	height="16"
	viewBox="0 0 16 16"
	fill="context-fill"
	fill-opacity="context-fill-opacity"
	xmlns="http://www.w3.org/2000/svg"
>
	<path
		fill-rule="evenodd"
		clip-rule="evenodd"
		d="M3.5 1C3.22386 1 3 1.22386 3 1.5V7.08535C2.4174 7.29127 2 7.84689 2 8.5V9.5C2 10.3284 2.67155 11 3.49999 11H3.50345H3.50691H3.51037H3.51384H3.51732H3.52079H3.52427H3.52776H3.53124H3.53473H3.53823H3.54173H3.54523H3.54873H3.55224H3.55575H3.55927H3.56279H3.56631H3.56983H3.57336H3.57689H3.58043H3.58397H3.58751H3.59106H3.5946H3.59816H3.60171H3.60527H3.60883H3.6124H3.61597H3.61954H3.62311H3.62669H3.63027H3.63386H3.63745H3.64104H3.64463H3.64823H3.65183H3.65543H3.65904H3.66265H3.66626H3.66988H3.6735H3.67712H3.68075H3.68437H3.68801H3.69164H3.69528H3.69892H3.70256H3.70621H3.70986H3.71351H3.71717H3.72082H3.72449H3.72815H3.73182H3.73549H3.73916H3.74284H3.74652H3.7502H3.75388H3.75757H3.76126H3.76495H3.76865H3.77235H3.77605H3.77975H3.78346H3.78717H3.79088H3.7946H3.79831H3.80203H3.80576H3.80948H3.81321H3.81694H3.82068H3.82441H3.82815H3.83189H3.83564H3.83939H3.84313H3.84689H3.85064H3.8544H3.85816H3.86192H3.86569H3.86945H3.87322H3.877H3.88077H3.88455H3.88833H3.89211H3.8959H3.89968H3.90347H3.90726H3.91106H3.91485H3.91865H3.92246H3.92626H3.93007H3.93387H3.93768H3.9415H3.94531H3.94913H3.95295H3.95677H3.9606H3.96442H3.96825H3.97208H3.97592H3.97975H3.98359H3.98743H3.99127H3.99512H3.99896H4.00281H4.00666H4.01052H4.01437H4.01823H4.02209H4.02595H4.02981H4.03368H4.03754H4.04141H4.04528H4.04916H4.05303H4.05691H4.06079H4.06467H4.06855H4.07244H4.07633H4.08021H4.08411H4.088H4.09189H4.09579H4.09969H4.10359H4.10749H4.11139H4.1153H4.11921H4.12312H4.12703H4.13094H4.13486H4.13877H4.14269H4.14661H4.15053H4.15445H4.15838H4.16231H4.16623H4.17016H4.1741H4.17803H4.18196H4.1859H4.18984H4.19378H4.19772H4.20166H4.20561H4.20955H4.2135H4.21745H4.2214H4.22535H4.22931H4.23326H4.23722H4.24118H4.24514H4.2491H4.25306H4.25703H4.26099H4.26496H4.26893H4.2729H4.27687H4.28084H4.28481H4.28879H4.29276H4.29674H4.30072H4.3047H4.30868H4.31266H4.31665H4.32063H4.32462H4.32861H4.3326H4.33659H4.34058H4.34457H4.34857H4.35256H4.35656H4.36055H4.36455H4.36855H4.37255H4.37656H4.38056H4.38456H4.38857H4.39257H4.39658H4.40059H4.4046H4.40861H4.41262H4.41663H4.42064H4.42466H4.42867H4.43269H4.43671H4.44073H4.44474H4.44876H4.45278H4.45681H4.46083H4.46485H4.46888H4.4729H4.47693H4.48095H4.48498H4.48901H4.49304H4.49707H4.5011H4.50513H4.50916H4.5132H4.51723H4.52126H4.5253H4.52933H4.53337H4.53741H4.54144H4.54548H4.54952H4.55356H4.5576H4.56164H4.56568H4.56973H4.57377H4.57781H4.58186H4.5859H4.58994H4.59399H4.59804H4.60208H4.60613H4.61018H4.61422H4.61827H4.62232H4.62637H4.63042H4.63447H4.63852H4.64257H4.64662H4.65067H4.65472H4.65878H4.66283H4.66688H4.67093H4.67499H4.67904H4.68309H4.68715H4.6912H4.69526H4.69931H4.70337H4.70742H4.71148H4.71553H4.71959H4.72365H4.7277H4.73176H4.73582H4.73987H4.74393H4.74799H4.75204H4.7561H4.76016H4.76421H4.76827H4.77233H4.77639H4.78044H4.7845H4.78856H4.79262H4.79667H4.80073H4.80479H4.80884H4.8129H4.81696H4.82102H4.82507H4.82913H4.83319H4.83724H4.8413H4.84536H4.84941H4.85347H4.85752H4.86158H4.86563H4.86969H4.87374H4.8778H4.88185H4.88591H4.88996H4.89401H4.89807H4.90212H4.90617H4.91022H4.91428H4.91833H4.92238H4.92643H4.93048H4.93453H4.93858H4.94263H4.94668H4.95073H4.95477H4.95882H4.96287H4.96691H4.97096H4.97501H4.97905H4.9831H4.98714H4.99118H4.99522H4.99927H5.00331H5.00735H5.01139H5.01543H5.01947H5.02351H5.02755H5.03158H5.03562H5.03966H5.04369H5.04773H5.05176H5.05579H5.05982H5.06386H5.06789H5.07192H5.07595H5.07998H5.084H5.08803H5.09206H5.09608H5.10011H5.10413H5.10815H5.11218H5.1162H5.12022H5.12424H5.12825H5.13227H5.13629H5.1403H5.14432H5.14833H5.15234H5.15636H5.16037H5.16438H5.16839H5.17239H5.1764H5.1804H5.18441H5.18841H5.19242H5.19642H5.20042H5.20442H5.20841H5.21241H5.2164H5.2204H5.22439H5.22838H5.23238H5.23636H5.24035H5.24434H5.24833H5.25231H5.25629H5.26028H5.26426H5.26824H5.27221H5.27619H5.28017H5.28414H5.28811H5.29209H5.29606H5.30002H5.30399H5.30796H5.31192H5.31589H5.31985H5.32381H5.32777H5.33172H5.33568H5.33963H5.34359H5.34754H5.35149H5.35544H5.35938H5.36333H5.36727H5.37121H5.37515H5.37909H5.38303H5.38697H5.3909H5.39483H5.39876H5.40269H5.40662H5.41055H5.41447H5.41839H5.42231H5.42623H5.43015H5.43406H5.43798H5.44189H5.4458H5.44971H5.45362H5.45752H5.46142H5.46532H5.46922H5.47312H5.47702H5.48091H5.4848H5.48869H5.49258H5.49646H5.50035C5.77626 11 6 11.2236 6 11.5V13.5C6 14.3284 6.67157 15 7.5 15H8.5C9.32843 15 10 14.3284 10 13.5V11.5C10 11.2239 10.2239 11 10.5 11H12.5C13.3284 11 14 10.3284 14 9.5V8.5C14 7.84689 13.5826 7.29127 13 7.08535V1.5C13 1.22386 12.7761 1 12.5 1H10.5H8H5.5H3.5ZM10 2V3.5C10 3.77614 10.2239 4 10.5 4C10.7761 4 11 3.77614 11 3.5V2H12V7H4V2H5V3.5C5 3.77614 5.22386 4 5.5 4C5.77614 4 6 3.77614 6 3.5V2H7.5V3.5C7.5 3.77614 7.72386 4 8 4C8.27614 4 8.5 3.77614 8.5 3.5V2H10ZM3 8.5C3 8.22386 3.22386 8 3.5 8H12.5C12.7761 8 13 8.22386 13 8.5V9.5C13 9.77614 12.7761 10 12.5 10H10.5C9.67157 10 9 10.6716 9 11.5V13.5C9 13.7761 8.77614 14 8.5 14H7.5C7.22386 14 7 13.7761 7 13.5V11.5C7 10.6718 6.329 10 5.50035 10H5.49646H5.49258H5.48869H5.4848H5.48091H5.47702H5.47312H5.46922H5.46532H5.46142H5.45752H5.45362H5.44971H5.4458H5.44189H5.43798H5.43406H5.43015H5.42623H5.42231H5.41839H5.41447H5.41055H5.40662H5.40269H5.39876H5.39483H5.3909H5.38697H5.38303H5.37909H5.37515H5.37121H5.36727H5.36333H5.35938H5.35544H5.35149H5.34754H5.34359H5.33963H5.33568H5.33172H5.32777H5.32381H5.31985H5.31589H5.31192H5.30796H5.30399H5.30002H5.29606H5.29209H5.28811H5.28414H5.28017H5.27619H5.27221H5.26824H5.26426H5.26028H5.25629H5.25231H5.24833H5.24434H5.24035H5.23636H5.23238H5.22838H5.22439H5.2204H5.2164H5.21241H5.20841H5.20442H5.20042H5.19642H5.19242H5.18841H5.18441H5.1804H5.1764H5.17239H5.16839H5.16438H5.16037H5.15636H5.15234H5.14833H5.14432H5.1403H5.13629H5.13227H5.12825H5.12424H5.12022H5.1162H5.11218H5.10815H5.10413H5.10011H5.09608H5.09206H5.08803H5.084H5.07998H5.07595H5.07192H5.06789H5.06386H5.05982H5.05579H5.05176H5.04773H5.04369H5.03966H5.03562H5.03158H5.02755H5.02351H5.01947H5.01543H5.01139H5.00735H5.00331H4.99927H4.99522H4.99118H4.98714H4.9831H4.97905H4.97501H4.97096H4.96691H4.96287H4.95882H4.95477H4.95073H4.94668H4.94263H4.93858H4.93453H4.93048H4.92643H4.92238H4.91833H4.91428H4.91022H4.90617H4.90212H4.89807H4.89401H4.88996H4.88591H4.88185H4.8778H4.87374H4.86969H4.86563H4.86158H4.85752H4.85347H4.84941H4.84536H4.8413H4.83724H4.83319H4.82913H4.82507H4.82102H4.81696H4.8129H4.80884H4.80479H4.80073H4.79667H4.79262H4.78856H4.7845H4.78044H4.77639H4.77233H4.76827H4.76421H4.76016H4.7561H4.75204H4.74799H4.74393H4.73987H4.73582H4.73176H4.7277H4.72365H4.71959H4.71553H4.71148H4.70742H4.70337H4.69931H4.69526H4.6912H4.68715H4.68309H4.67904H4.67499H4.67093H4.66688H4.66283H4.65878H4.65472H4.65067H4.64662H4.64257H4.63852H4.63447H4.63042H4.62637H4.62232H4.61827H4.61422H4.61018H4.60613H4.60208H4.59804H4.59399H4.58994H4.5859H4.58186H4.57781H4.57377H4.56973H4.56568H4.56164H4.5576H4.55356H4.54952H4.54548H4.54144H4.53741H4.53337H4.52933H4.5253H4.52126H4.51723H4.5132H4.50916H4.50513H4.5011H4.49707H4.49304H4.48901H4.48498H4.48095H4.47693H4.4729H4.46888H4.46485H4.46083H4.45681H4.45278H4.44876H4.44474H4.44073H4.43671H4.43269H4.42867H4.42466H4.42064H4.41663H4.41262H4.40861H4.4046H4.40059H4.39658H4.39257H4.38857H4.38456H4.38056H4.37656H4.37255H4.36855H4.36455H4.36055H4.35656H4.35256H4.34857H4.34457H4.34058H4.33659H4.3326H4.32861H4.32462H4.32063H4.31665H4.31266H4.30868H4.3047H4.30072H4.29674H4.29276H4.28879H4.28481H4.28084H4.27687H4.2729H4.26893H4.26496H4.26099H4.25703H4.25306H4.2491H4.24514H4.24118H4.23722H4.23326H4.22931H4.22535H4.2214H4.21745H4.2135H4.20955H4.20561H4.20166H4.19772H4.19378H4.18984H4.1859H4.18196H4.17803H4.1741H4.17016H4.16623H4.16231H4.15838H4.15445H4.15053H4.14661H4.14269H4.13877H4.13486H4.13094H4.12703H4.12312H4.11921H4.1153H4.11139H4.10749H4.10359H4.09969H4.09579H4.09189H4.088H4.08411H4.08021H4.07633H4.07244H4.06855H4.06467H4.06079H4.05691H4.05303H4.04916H4.04528H4.04141H4.03754H4.03368H4.02981H4.02595H4.02209H4.01823H4.01437H4.01052H4.00666H4.00281H3.99896H3.99512H3.99127H3.98743H3.98359H3.97975H3.97592H3.97208H3.96825H3.96442H3.9606H3.95677H3.95295H3.94913H3.94531H3.9415H3.93768H3.93387H3.93007H3.92626H3.92246H3.91865H3.91485H3.91106H3.90726H3.90347H3.89968H3.8959H3.89211H3.88833H3.88455H3.88077H3.877H3.87322H3.86945H3.86569H3.86192H3.85816H3.8544H3.85064H3.84689H3.84313H3.83939H3.83564H3.83189H3.82815H3.82441H3.82068H3.81694H3.81321H3.80948H3.80576H3.80203H3.79831H3.7946H3.79088H3.78717H3.78346H3.77975H3.77605H3.77235H3.76865H3.76495H3.76126H3.75757H3.75388H3.7502H3.74652H3.74284H3.73916H3.73549H3.73182H3.72815H3.72449H3.72082H3.71717H3.71351H3.70986H3.70621H3.70256H3.69892H3.69528H3.69164H3.68801H3.68437H3.68075H3.67712H3.6735H3.66988H3.66626H3.66265H3.65904H3.65543H3.65183H3.64823H3.64463H3.64104H3.63745H3.63386H3.63027H3.62669H3.62311H3.61954H3.61597H3.6124H3.60883H3.60527H3.60171H3.59816H3.5946H3.59106H3.58751H3.58397H3.58043H3.57689H3.57336H3.56983H3.56631H3.56279H3.55927H3.55575H3.55224H3.54873H3.54523H3.54173H3.53823H3.53473H3.53124H3.52776H3.52427H3.52079H3.51732H3.51384H3.51037H3.50691H3.50345H3.49999C3.22385 10 3 9.77615 3 9.5V8.5Z"
	/>
</svg>
