<!-- This Source Code Form is subject to the terms of the Mozilla Public
   - License, v. 2.0. If a copy of the MPL was not distributed with this
   - file, You can obtain one at http://mozilla.org/MPL/2.0/. -->

<svg
	width="16"
	height="16"
	viewBox="0 0 16 16"
	fill="context-fill"
	fill-opacity="context-fill-opacity"
	xmlns="http://www.w3.org/2000/svg"
>
	<path
		fill-rule="evenodd"
		clip-rule="evenodd"
		d="M14 12V8H12.4437C11.8824 8 11.3261 8.105 10.8035 8.30958L10.0047 8.62222C8.71586 9.12673 7.28414 9.12673 5.99525 8.62222L5.19654 8.30958C4.67388 8.105 4.11756 8 3.55629 8H2V12C2 13.1046 2.89543 14 4 14H12C13.1046 14 14 13.1046 14 12ZM12.4437 7H14V4C14 2.89543 13.1046 2 12 2H10H9H8H6H4C2.89543 2 2 2.89543 2 4V7H3.55629C4.24229 7 4.92223 7.12833 5.56104 7.37838L6.35975 7.69102C7.4143 8.1038 8.5857 8.1038 9.64025 7.69102L10.439 7.37838C11.0778 7.12833 11.7577 7 12.4437 7ZM15 12V7.5V4C15 2.34315 13.6569 1 12 1H10H9H8H6H4C2.34315 1 1 2.34315 1 4V7.5V12C1 13.6569 2.34315 15 4 15H12C13.6569 15 15 13.6569 15 12ZM6 4.5C6 4.22386 6.22386 4 6.5 4H9.5C9.77614 4 10 4.22386 10 4.5C10 4.77614 9.77614 5 9.5 5H6.5C6.22386 5 6 4.77614 6 4.5ZM6 11.5C6 11.2239 6.22386 11 6.5 11H9.5C9.77614 11 10 11.2239 10 11.5C10 11.7761 9.77614 12 9.5 12H6.5C6.22386 12 6 11.7761 6 11.5Z"
	/>
</svg>
