<!-- This Source Code Form is subject to the terms of the Mozilla Public
   - License, v. 2.0. If a copy of the MPL was not distributed with this
   - file, You can obtain one at http://mozilla.org/MPL/2.0/. -->

<svg
	width="16"
	height="16"
	viewBox="0 0 16 16"
	fill="context-fill"
	fill-opacity="context-fill-opacity"
	xmlns="http://www.w3.org/2000/svg"
>
	<path
		fill-rule="evenodd"
		clip-rule="evenodd"
		d="M2 3.5C2 2.11929 3.11929 1 4.5 1H11.5C12.8807 1 14 2.11929 14 3.5V12.5C14 13.8807 12.8807 15 11.5 15H4.5C3.11929 15 2 13.8807 2 12.5V3.5ZM4.5 2C3.67157 2 3 2.67157 3 3.5V12.5C3 13.3284 3.67157 14 4.5 14H11.5C12.3284 14 13 13.3284 13 12.5V3.5C13 2.67157 12.3284 2 11.5 2H4.5ZM11 4H5V6H11V4ZM5 3C4.44772 3 4 3.44772 4 4V6C4 6.55228 4.44772 7 5 7H11C11.5523 7 12 6.55228 12 6V4C12 3.44772 11.5523 3 11 3H5ZM5 10C5.55228 10 6 9.55229 6 9C6 8.44772 5.55228 8 5 8C4.44772 8 4 8.44772 4 9C4 9.55229 4.44772 10 5 10ZM9 9C9 9.55229 8.55228 10 8 10C7.44772 10 7 9.55229 7 9C7 8.44772 7.44772 8 8 8C8.55228 8 9 8.44772 9 9ZM5 13C5.55228 13 6 12.5523 6 12C6 11.4477 5.55228 11 5 11C4.44772 11 4 11.4477 4 12C4 12.5523 4.44772 13 5 13ZM9 12C9 12.5523 8.55228 13 8 13C7.44772 13 7 12.5523 7 12C7 11.4477 7.44772 11 8 11C8.55228 11 9 11.4477 9 12ZM11 8C10.4477 8 10 8.44771 10 9V12C10 12.5523 10.4477 13 11 13C11.5523 13 12 12.5523 12 12V9C12 8.44771 11.5523 8 11 8Z"
	/>
</svg>
