<!-- This Source Code Form is subject to the terms of the Mozilla Public
   - License, v. 2.0. If a copy of the MPL was not distributed with this
   - file, You can obtain one at http://mozilla.org/MPL/2.0/. -->

<svg
	width="16"
	height="16"
	viewBox="0 0 16 16"
	fill="context-fill"
	fill-opacity="context-fill-opacity"
	xmlns="http://www.w3.org/2000/svg"
>
	<path
		fill-rule="evenodd"
		clip-rule="evenodd"
		d="M7.11803 3C6.92865 3 6.75552 3.107 6.67082 3.27639L5.94721 4.72361C5.86252 4.893 5.68939 5 5.5 5H3.5C2.67157 5 2 5.67157 2 6.5V11.5C2 12.3284 2.67157 13 3.5 13H12.5C13.3284 13 14 12.3284 14 11.5V6.5C14 5.67157 13.3284 5 12.5 5H10.5C10.3106 5 10.1375 4.893 10.0528 4.72361L9.32918 3.27639C9.24448 3.107 9.07135 3 8.88197 3H8H7.11803ZM5.77639 2.82918C6.03048 2.321 6.54988 2 7.11803 2H8H8.88197C9.45012 2 9.96952 2.321 10.2236 2.82918L10.809 4H12.5C13.8807 4 15 5.11929 15 6.5V11.5C15 12.8807 13.8807 14 12.5 14H3.5C2.11929 14 1 12.8807 1 11.5V6.5C1 5.11929 2.11929 4 3.5 4H5.19098L5.77639 2.82918ZM8 11C9.10457 11 10 10.1046 10 9C10 7.89543 9.10457 7 8 7C6.89543 7 6 7.89543 6 9C6 10.1046 6.89543 11 8 11ZM8 12C9.65685 12 11 10.6569 11 9C11 7.34315 9.65685 6 8 6C6.34315 6 5 7.34315 5 9C5 10.6569 6.34315 12 8 12ZM12.5 7C12.7761 7 13 6.77614 13 6.5C13 6.22386 12.7761 6 12.5 6C12.2239 6 12 6.22386 12 6.5C12 6.77614 12.2239 7 12.5 7Z"
	/>
</svg>
