<!-- This Source Code Form is subject to the terms of the Mozilla Public
   - License, v. 2.0. If a copy of the MPL was not distributed with this
   - file, You can obtain one at http://mozilla.org/MPL/2.0/. -->

<svg
	width="16"
	height="16"
	viewBox="0 0 16 16"
	fill="context-fill"
	fill-opacity="context-fill-opacity"
	xmlns="http://www.w3.org/2000/svg"
>
	<path
		fill-rule="evenodd"
		clip-rule="evenodd"
		d="M12 14.5C12 14.7761 12.2239 15 12.5 15C12.7761 15 13 14.7761 13 14.5V1.5C13 1.22386 12.7761 1 12.5 1C12.2239 1 12 1.22386 12 1.5V14.5ZM3.85355 2.14645C3.65829 1.95118 3.34171 1.95118 3.14645 2.14645C2.95118 2.34171 2.95118 2.65829 3.14645 2.85355L7.79289 7.5L3.14645 12.1464C2.95118 12.3417 2.95118 12.6583 3.14645 12.8536C3.34171 13.0488 3.65829 13.0488 3.85355 12.8536L8.85355 7.85355C9.04882 7.65829 9.04882 7.34171 8.85355 7.14645L3.85355 2.14645Z"
	/>
</svg>
