<!-- This Source Code Form is subject to the terms of the Mozilla Public
   - License, v. 2.0. If a copy of the MPL was not distributed with this
   - file, You can obtain one at http://mozilla.org/MPL/2.0/. -->

<svg
	width="16"
	height="16"
	viewBox="0 0 16 16"
	fill="context-fill"
	fill-opacity="context-fill-opacity"
	xmlns="http://www.w3.org/2000/svg"
>
	<path
		fill-rule="evenodd"
		clip-rule="evenodd"
		d="M3.5 15C3.22386 15 3 14.7761 3 14.5V1.5C3 1.22386 3.22386 1 3.5 1C3.77614 1 4 1.22386 4 1.5V14.5C4 14.7761 3.77614 15 3.5 15Z"
	/>
	<path
		fill-rule="evenodd"
		clip-rule="evenodd"
		d="M7.14645 2.14645C7.34171 1.95118 7.65829 1.95118 7.85355 2.14645L12.8536 7.14645C13.0488 7.34171 13.0488 7.65829 12.8536 7.85355L7.85355 12.8536C7.65829 13.0488 7.34171 13.0488 7.14645 12.8536C6.95118 12.6583 6.95118 12.3417 7.14645 12.1464L11.7929 7.5L7.14645 2.85355C6.95118 2.65829 6.95118 2.34171 7.14645 2.14645Z"
	/>
</svg>
