<!-- This Source Code Form is subject to the terms of the Mozilla Public
   - License, v. 2.0. If a copy of the MPL was not distributed with this
   - file, You can obtain one at http://mozilla.org/MPL/2.0/. -->

<svg
	width="16"
	height="16"
	viewBox="0 0 16 16"
	fill="context-fill"
	fill-opacity="context-fill-opacity"
	xmlns="http://www.w3.org/2000/svg"
>
	<path
		fill-rule="evenodd"
		clip-rule="evenodd"
		d="M3.5 1C2.11929 1 1 2.11929 1 3.5V8.5C1 9.88071 2.11929 11 3.5 11C3.77614 11 4 10.7761 4 10.5C4 10.2239 3.77614 10 3.5 10C2.67157 10 2 9.32843 2 8.5V3.5C2 2.67157 2.67157 2 3.5 2H8.5C9.32843 2 10 2.67157 10 3.5C10 3.77614 10.2239 4 10.5 4C10.7761 4 11 3.77614 11 3.5C11 2.11929 9.88071 1 8.5 1H3.5ZM7.5 5C6.11929 5 5 6.11929 5 7.5V12.5C5 13.8807 6.11929 15 7.5 15H12.5C13.8807 15 15 13.8807 15 12.5V7.5C15 6.11929 13.8807 5 12.5 5H7.5ZM6 7.5C6 6.67157 6.67157 6 7.5 6H12.5C13.3284 6 14 6.67157 14 7.5V12.5C14 13.3284 13.3284 14 12.5 14H7.5C6.67157 14 6 13.3284 6 12.5V7.5Z"
	/>
</svg>
