<!-- This Source Code Form is subject to the terms of the Mozilla Public
   - License, v. 2.0. If a copy of the MPL was not distributed with this
   - file, You can obtain one at http://mozilla.org/MPL/2.0/. -->

<svg
	width="16"
	height="16"
	viewBox="0 0 16 16"
	fill="context-fill"
	fill-opacity="context-fill-opacity"
	xmlns="http://www.w3.org/2000/svg"
>
	<path
		fill-rule="evenodd"
		clip-rule="evenodd"
		d="M3.33448 1.12836C3.12923 0.943628 2.81308 0.960267 2.62835 1.16552C2.44362 1.37078 2.46026 1.68692 2.66552 1.87165L7.2738 6.0191L4.28 9.0129C4.18781 9.00437 4.09442 9 4 9C2.34315 9 1 10.3432 1 12C1 13.6569 2.34315 15 4 15C5.65685 15 7 13.6569 7 12C7 10.8385 6.33993 9.83118 5.37444 9.33267L8 6.70711L10.6256 9.33267C9.66007 9.83118 9 10.8385 9 12C9 13.6569 10.3431 15 12 15C13.6569 15 15 13.6569 15 12C15 10.3432 13.6569 9 12 9C11.9056 9 11.8122 9.00437 11.72 9.0129L8.70711 6L12.8536 1.85356C13.0488 1.6583 13.0488 1.34171 12.8536 1.14645C12.6583 0.951189 12.3417 0.951189 12.1464 1.14645L7.98188 5.31102L3.33448 1.12836ZM4 14C5.10457 14 6 13.1046 6 12C6 10.8954 5.10457 10 4 10C2.89543 10 2 10.8954 2 12C2 13.1046 2.89543 14 4 14ZM12 14C13.1046 14 14 13.1046 14 12C14 10.8954 13.1046 10 12 10C10.8954 10 10 10.8954 10 12C10 13.1046 10.8954 14 12 14Z"
	/>
</svg>
