<!-- This Source Code Form is subject to the terms of the Mozilla Public
   - License, v. 2.0. If a copy of the MPL was not distributed with this
   - file, You can obtain one at http://mozilla.org/MPL/2.0/. -->

<svg
	width="16"
	height="16"
	viewBox="0 0 16 16"
	fill="context-fill"
	xmlns="http://www.w3.org/2000/svg"
>
	<path
		fill-rule="evenodd"
		clip-rule="evenodd"
		d="M3.5 1C2.11929 1 1 2.11929 1 3.5V8.5C1 9.88071 2.11929 11 3.5 11H7V14H5.5C5.22386 14 5 14.2239 5 14.5C5 14.7761 5.22386 15 5.5 15H7.5C7.77614 15 8 14.7761 8 14.5V10.5C8 10.2239 7.77614 10 7.5 10H3.5C2.67157 10 2 9.32843 2 8.5V3.5C2 2.67157 2.67157 2 3.5 2H12.5C13.3284 2 14 2.67157 14 3.5C14 3.77614 14.2239 4 14.5 4C14.7761 4 15 3.77614 15 3.5C15 2.11929 13.8807 1 12.5 1H3.5ZM9.05602 6.52801C9.0194 6.67935 9 6.83741 9 7V13C9 13.1626 9.0194 13.3207 9.05602 13.472C9.26814 14.3488 10.058 15 11 15H13C13.942 15 14.7319 14.3488 14.944 13.472C14.9806 13.3207 15 13.1626 15 13V7C15 6.83741 14.9806 6.67935 14.944 6.52801C14.7319 5.65122 13.942 5 13 5H11C10.058 5 9.26814 5.65122 9.05602 6.52801ZM14 7H10V13H14V7Z"
	/>
</svg>
