<!-- This Source Code Form is subject to the terms of the Mozilla Public
   - License, v. 2.0. If a copy of the MPL was not distributed with this
   - file, You can obtain one at http://mozilla.org/MPL/2.0/. -->

<svg
	width="16"
	height="16"
	viewBox="0 0 16 16"
	fill="context-fill"
	fill-opacity="context-fill-opacity"
	xmlns="http://www.w3.org/2000/svg"
>
	<path
		fill-rule="evenodd"
		clip-rule="evenodd"
		d="M14 5C14 5.07605 13.9683 5.23213 13.7382 5.4653C13.5038 5.70277 13.1151 5.96249 12.5558 6.20218C11.4409 6.68002 9.83081 7 8 7C6.16919 7 4.55915 6.68002 3.44417 6.20218C2.8849 5.96249 2.4962 5.70277 2.26184 5.4653C2.03173 5.23213 2 5.07605 2 5C2 4.92395 2.03173 4.76787 2.26184 4.5347C2.4962 4.29723 2.8849 4.03751 3.44417 3.79782C4.55915 3.31998 6.16919 3 8 3C9.83081 3 11.4409 3.31998 12.5558 3.79782C13.1151 4.03751 13.5038 4.29723 13.7382 4.5347C13.9683 4.76787 14 4.92395 14 5ZM15 5V8.5V10.5083C15 11.2829 14.6355 12.0579 13.9037 12.4633C12.7892 13.0808 10.682 14 8 14C5.31803 14 3.21084 13.0808 2.09628 12.4633C1.36454 12.0579 1 11.2829 1 10.5083V8.5V5C1 3.34315 4.13401 2 8 2C11.866 2 15 3.34315 15 5ZM14 6.54611C12.7751 7.41732 10.5463 8 8 8C5.45367 8 3.2249 7.41732 2 6.54611V8.23868C2.06301 8.28027 2.14057 8.32994 2.23199 8.38577C2.52265 8.56326 2.95231 8.80232 3.49939 9.042C4.59485 9.52193 6.15088 9.99996 8 9.99998C9.84912 9.99999 11.4051 9.52196 12.5006 9.04202C13.0477 8.80234 13.4773 8.56328 13.768 8.38578C13.8594 8.32994 13.937 8.28027 14 8.23868V6.54611ZM12.9019 9.95797C13.3378 9.76701 13.7067 9.5757 14 9.40935V10.5083C14 10.9834 13.7805 11.3884 13.4191 11.5886C12.3947 12.1562 10.4565 13 8 13C5.54354 13 3.60532 12.1562 2.58092 11.5886C2.21955 11.3884 2 10.9834 2 10.5083V9.40934C2.2933 9.57568 2.66222 9.76699 3.09811 9.95795C4.28515 10.478 5.97912 11 8 11C10.0209 11 11.7149 10.478 12.9019 9.95797Z"
	/>
</svg>
