<!-- This Source Code Form is subject to the terms of the Mozilla Public
   - License, v. 2.0. If a copy of the MPL was not distributed with this
   - file, You can obtain one at http://mozilla.org/MPL/2.0/. -->

<svg
	width="16"
	height="16"
	viewBox="0 0 16 16"
	fill="context-fill"
	fill-opacity="context-fill-opacity"
	xmlns="http://www.w3.org/2000/svg"
>
	<path
		fill-rule="evenodd"
		clip-rule="evenodd"
		d="M4 14H12C13.1046 14 14 13.1046 14 12V4C14 2.89543 13.1046 2 12 2H4C2.89543 2 2 2.89543 2 4V12C2 13.1046 2.89543 14 4 14ZM12 15C13.6569 15 15 13.6569 15 12V4C15 2.34315 13.6569 1 12 1H4C2.34315 1 1 2.34315 1 4V12C1 13.6569 2.34315 15 4 15H12Z"
	/>
	<path
		fill-rule="evenodd"
		clip-rule="evenodd"
		d="M11.5 12C11.2239 12 11 11.7761 11 11.5V4.5C11 4.22386 11.2239 4 11.5 4C11.7761 4 12 4.22386 12 4.5V11.5C12 11.7761 11.7761 12 11.5 12Z"
	/>
</svg>
