<!-- This Source Code Form is subject to the terms of the Mozilla Public
   - License, v. 2.0. If a copy of the MPL was not distributed with this
   - file, You can obtain one at http://mozilla.org/MPL/2.0/. -->

<svg
	width="16"
	height="16"
	viewBox="0 0 16 16"
	fill="context-fill"
	fill-opacity="context-fill-opacity"
	xmlns="http://www.w3.org/2000/svg"
>
	<path
		d="M10.1425 12.1504C9.94945 12.3479 9.953 12.6644 10.1504 12.8575C10.3479 13.0506 10.6645 13.047 10.8575 12.8496L14.5739 9.04867C15.1439 8.46573 15.1439 7.53427 14.5739 6.95133L10.8575 3.15044C10.6645 2.953 10.3479 2.94944 10.1504 3.1425C9.953 3.33555 9.94945 3.65211 10.1425 3.84956L13.8589 7.65044C14.0489 7.84476 14.0489 8.15524 13.8589 8.34956L10.1425 12.1504Z"
	/>
	<path
		d="M5.8575 3.84956C6.05055 3.65211 6.047 3.33555 5.84955 3.1425C5.65211 2.94944 5.33554 2.953 5.14249 3.15044L1.42608 6.95133C0.8561 7.53427 0.856101 8.46573 1.42608 9.04867L5.14249 12.8496C5.33554 13.047 5.65211 13.0506 5.84955 12.8575C6.047 12.6644 6.05055 12.3479 5.8575 12.1504L2.14109 8.34956C1.9511 8.15524 1.9511 7.84476 2.14109 7.65044L5.8575 3.84956Z"
	/>
</svg>
