<!-- This Source Code Form is subject to the terms of the Mozilla Public
   - License, v. 2.0. If a copy of the MPL was not distributed with this
   - file, You can obtain one at http://mozilla.org/MPL/2.0/. -->

<svg
	width="16"
	height="16"
	viewBox="0 0 16 16"
	fill="context-fill"
	fill-opacity="context-fill-opacity"
	xmlns="http://www.w3.org/2000/svg"
>
	<path
		fill-rule="evenodd"
		clip-rule="evenodd"
		d="M2.85355 2.14645C2.65829 1.95118 2.34171 1.95118 2.14645 2.14645C1.95118 2.34171 1.95118 2.65829 2.14645 2.85355L6.79289 7.5L2.14645 12.1464C1.95118 12.3417 1.95118 12.6583 2.14645 12.8536C2.34171 13.0488 2.65829 13.0488 2.85355 12.8536L7.85355 7.85355C8.04882 7.65829 8.04882 7.34171 7.85355 7.14645L2.85355 2.14645ZM7.85355 2.14645C7.65829 1.95118 7.34171 1.95118 7.14645 2.14645C6.95118 2.34171 6.95118 2.65829 7.14645 2.85355L11.7929 7.5L7.14645 12.1464C6.95118 12.3417 6.95118 12.6583 7.14645 12.8536C7.34171 13.0488 7.65829 13.0488 7.85355 12.8536L12.8536 7.85355C13.0488 7.65829 13.0488 7.34171 12.8536 7.14645L7.85355 2.14645Z"
	/>
</svg>
