<!-- This Source Code Form is subject to the terms of the Mozilla Public
   - License, v. 2.0. If a copy of the MPL was not distributed with this
   - file, You can obtain one at http://mozilla.org/MPL/2.0/. -->

<svg
	width="16"
	height="16"
	viewBox="0 0 16 16"
	fill="context-fill"
	fill-opacity="context-fill-opacity"
	xmlns="http://www.w3.org/2000/svg"
>
	<path
		fill-rule="evenodd"
		clip-rule="evenodd"
		d="M11.0654 1.81886C9.97995 0.733394 8.22006 0.733394 7.13459 1.81886L5.47461 3.47884C4.32751 4.62594 4.4878 6.52917 5.81059 7.46826C6.03576 7.62811 6.34789 7.57517 6.50774 7.35C6.66759 7.12483 6.61464 6.8127 6.38947 6.65285C5.57151 6.07216 5.4724 4.89527 6.18172 4.18595L7.8417 2.52597C8.53664 1.83102 9.66337 1.83102 10.3583 2.52597C11.0421 3.20977 11.0547 4.31449 10.3866 5.01366L9.23853 6.21513C9.04776 6.41478 9.05496 6.73128 9.25461 6.92205C9.45426 7.11283 9.77076 7.10563 9.96153 6.90598L11.1096 5.70451C12.1531 4.61245 12.1335 2.88692 11.0654 1.81886ZM7.2607 6.42778C7.7259 6.85765 7.74031 7.58812 7.29243 8.036L5.02771 10.3007C4.34277 10.9857 3.23227 10.9857 2.54733 10.3007C1.86239 9.61578 1.8624 8.50528 2.54734 7.82034L3.95359 6.41411C4.14885 6.21885 4.14885 5.90227 3.95359 5.707C3.75833 5.51174 3.44175 5.51174 3.24648 5.707L1.84024 7.11323C0.764766 8.18869 0.764761 9.93237 1.84023 11.0078C2.91569 12.0833 4.65936 12.0833 5.73482 11.0078L7.99953 8.74311C8.84888 7.89377 8.82155 6.50852 7.93937 5.69333C7.73656 5.50592 7.42022 5.51841 7.23281 5.72122C7.0454 5.92403 7.05789 6.24037 7.2607 6.42778ZM11.5 7.00001C10.6716 7.00001 10 7.67158 10 8.50001V10.0854C9.4174 10.2913 9 10.8469 9 11.5V13.5C9 14.3284 9.67157 15 10.5 15H13.5C14.3284 15 15 14.3284 15 13.5V11.5C15 10.8469 14.5826 10.2913 14 10.0854V8.50001C14 7.67158 13.3284 7.00001 12.5 7.00001H11.5ZM11 8.50001V10H13V8.50001C13 8.22387 12.7761 8.00001 12.5 8.00001H11.5C11.2239 8.00001 11 8.22387 11 8.50001ZM10 11.5C10 11.2239 10.2239 11 10.5 11H13.5C13.7761 11 14 11.2239 14 11.5V13.5C14 13.7761 13.7761 14 13.5 14H10.5C10.2239 14 10 13.7761 10 13.5V11.5Z"
	/>
</svg>
