<!-- This Source Code Form is subject to the terms of the Mozilla Public
   - License, v. 2.0. If a copy of the MPL was not distributed with this
   - file, You can obtain one at http://mozilla.org/MPL/2.0/. -->

<svg
	width="16"
	height="16"
	viewBox="0 0 16 16"
	fill="context-fill"
	fill-opacity="context-fill-opacity"
	xmlns="http://www.w3.org/2000/svg"
>
	<path
		fill-rule="evenodd"
		clip-rule="evenodd"
		d="M9.93934 1.35352C10.5251 0.767737 11.4749 0.767739 12.0607 1.35352L14.6464 3.93931C15.2322 4.5251 15.2322 5.47485 14.6464 6.06063L5.85356 14.8535C5.75979 14.9473 5.63261 15 5.5 15H2.52728C1.69886 15 1.02728 14.3284 1.02728 13.5L1.02728 10.5C1.02728 10.3677 1.07971 10.2408 1.17309 10.1471L9.93934 1.35352ZM11.3536 2.06063C11.1583 1.86537 10.8417 1.86537 10.6464 2.06063L9.70711 2.99997L13 6.29286L13.9393 5.35352C14.1346 5.15826 14.1346 4.84168 13.9393 4.64642L11.3536 2.06063ZM12.2929 6.99997L9.00064 3.70772L2.23254 10.5005L5.50121 13.7917L12.2929 6.99997ZM4.29871 14L2.02728 11.7129L2.02728 13.5C2.02728 13.7761 2.25114 14 2.52728 14H4.29871Z"
	/>
</svg>
