<!-- This Source Code Form is subject to the terms of the Mozilla Public
   - License, v. 2.0. If a copy of the MPL was not distributed with this
   - file, You can obtain one at http://mozilla.org/MPL/2.0/. -->

<svg
	width="16"
	height="16"
	viewBox="0 0 16 16"
	fill="context-fill"
	fill-opacity="context-fill-opacity"
	xmlns="http://www.w3.org/2000/svg"
>
	<path
		fill-rule="evenodd"
		clip-rule="evenodd"
		d="M13.7028 2.27664C13.3134 1.89914 12.692 1.90982 12.3158 2.30048L9.99535 4.70986L8.13766 2.84922C7.78107 2.49207 7.20294 2.49207 6.84635 2.84922C6.48977 3.20637 6.48977 3.78543 6.84635 4.14258L11.8402 9.14436C12.1968 9.50151 12.7749 9.50151 13.1315 9.14436C13.4881 8.78721 13.4881 8.20816 13.1315 7.85101L11.2698 5.98634L13.6937 3.696C14.1001 3.31197 14.1043 2.66586 13.7028 2.27664ZM11.5969 1.60598C12.3566 0.817202 13.6112 0.79564 14.3974 1.55785C15.208 2.3437 15.1997 3.64827 14.3791 4.42366L12.7031 6.00724L13.8377 7.14365C14.5844 7.89146 14.5844 9.10391 13.8377 9.85172C13.0911 10.5995 11.8806 10.5995 11.134 9.85172L9.98893 8.70486L4.43511 14.2675C3.96685 14.7365 3.33174 15 2.66952 15H1.59926C1.2683 15 1 14.7313 1 14.3998V13.3278C1 12.6646 1.26307 12.0284 1.73133 11.5594L7.28515 5.99679L6.14012 4.84994C5.39349 4.10212 5.39349 2.88968 6.14012 2.14186C6.88675 1.39405 8.09727 1.39405 8.8439 2.14186L9.98251 3.28229L11.5969 1.60598ZM7.99139 6.70415L2.43757 12.2668C2.15661 12.5482 1.99877 12.9299 1.99877 13.3278V13.9996H2.66952C3.06685 13.9996 3.44791 13.8416 3.72887 13.5601L9.28269 7.9975L7.99139 6.70415Z"
	/>
</svg>
