<!-- This Source Code Form is subject to the terms of the Mozilla Public
   - License, v. 2.0. If a copy of the MPL was not distributed with this
   - file, You can obtain one at http://mozilla.org/MPL/2.0/. -->

<svg
	width="16"
	height="16"
	viewBox="0 0 16 16"
	fill="context-fill"
	fill-opacity="context-fill-opacity"
	xmlns="http://www.w3.org/2000/svg"
>
    <path
        fill-rule="evenodd"
        clip-rule="evenodd"
        d="M3.5 1C2.67157 1 2 1.67157 2 2.5V13.5C2 14.3284 2.67157 15 3.5 15H5.5C5.77614 15 6 14.7761 6 14.5C6 14.2239 5.77614 14 5.5 14H3.5C3.22386 14 3 13.7761 3 13.5V2.5C3 2.22386 3.22386 2 3.5 2H7V5.5C7 6.32843 7.67157 7 8.5 7H12.5C12.7022 7 12.8845 6.87818 12.9619 6.69134C13.0393 6.50451 12.9966 6.28945 12.8536 6.14645L7.85355 1.14645C7.75979 1.05268 7.63261 1 7.5 1H3.5ZM11.2929 6L8 2.70711V5.5C8 5.77614 8.22386 6 8.5 6H11.2929ZM11.7383 13.4454C11.2479 13.7946 10.6479 14 10 14C8.34315 14 7 12.6569 7 11C7 9.34315 8.34315 8 10 8C11.6569 8 13 9.34315 13 11C13 11.6479 12.7946 12.2479 12.4454 12.7383L14.8536 15.1464C15.0488 15.3417 15.0488 15.6583 14.8536 15.8536C14.6583 16.0488 14.3417 16.0488 14.1464 15.8536L11.7383 13.4454ZM12 11C12 12.1046 11.1046 13 10 13C8.89543 13 8 12.1046 8 11C8 9.89543 8.89543 9 10 9C11.1046 9 12 9.89543 12 11Z"
    />
</svg>
