<!-- This Source Code Form is subject to the terms of the Mozilla Public
   - License, v. 2.0. If a copy of the MPL was not distributed with this
   - file, You can obtain one at http://mozilla.org/MPL/2.0/. -->

<svg
	width="16"
	height="16"
	viewBox="0 0 16 16"
	fill="context-fill"
	fill-opacity="context-fill-opacity"
	xmlns="http://www.w3.org/2000/svg"
>
	<path
		fill-rule="evenodd"
		clip-rule="evenodd"
		d="M1 3.5C1 2.67157 1.67157 2 2.5 2H5.96482C6.46635 2 6.93469 2.25065 7.21289 2.66795L8.76759 5H13.5C14.3284 5 15 5.67157 15 6.5V13.5C15 14.3284 14.3284 15 13.5 15H2.5C1.67157 15 1 14.3284 1 13.5V3.5ZM7.56574 5L6.38084 3.22265C6.28811 3.08355 6.13199 3 5.96482 3H2.5C2.22386 3 2 3.22386 2 3.5V5H7.56574ZM2 6V13.5C2 13.7761 2.22386 14 2.5 14H13.5C13.7761 14 14 13.7761 14 13.5V6.5C14 6.22386 13.7761 6 13.5 6H2Z"
	/>
</svg>
