<!-- This Source Code Form is subject to the terms of the Mozilla Public
   - License, v. 2.0. If a copy of the MPL was not distributed with this
   - file, You can obtain one at http://mozilla.org/MPL/2.0/. -->

<svg
	width="16"
	height="16"
	viewBox="0 0 16 16"
	fill="context-fill"
	fill-opacity="context-fill-opacity"
	xmlns="http://www.w3.org/2000/svg"
>
	<path
		fill-rule="evenodd"
		clip-rule="evenodd"
		d="M1 3.5C1 2.11929 2.11929 1 3.5 1H5.5C5.77614 1 6 1.22386 6 1.5C6 1.77614 5.77614 2 5.5 2H3.5C2.67157 2 2 2.67157 2 3.5V5.5C2 5.77614 1.77614 6 1.5 6C1.22386 6 1 5.77614 1 5.5V3.5ZM15 3.5C15 2.11929 13.8807 1 12.5 1H10.5C10.2239 1 10 1.22386 10 1.5C10 1.77614 10.2239 2 10.5 2H12.5C13.3284 2 14 2.67157 14 3.5V5.5C14 5.77614 14.2239 6 14.5 6C14.7761 6 15 5.77614 15 5.5V3.5ZM3.5 15C2.11929 15 1 13.8807 1 12.5V10.5C1 10.2239 1.22386 10 1.5 10C1.77614 10 2 10.2239 2 10.5V12.5C2 13.3284 2.67157 14 3.5 14H5.5C5.77614 14 6 14.2239 6 14.5C6 14.7761 5.77614 15 5.5 15H3.5ZM15 12.5C15 13.8807 13.8807 15 12.5 15H10.5C10.2239 15 10 14.7761 10 14.5C10 14.2239 10.2239 14 10.5 14H12.5C13.3284 14 14 13.3284 14 12.5V10.5C14 10.2239 14.2239 10 14.5 10C14.7761 10 15 10.2239 15 10.5V12.5Z"
	/>
</svg>
