<!-- This Source Code Form is subject to the terms of the Mozilla Public
   - License, v. 2.0. If a copy of the MPL was not distributed with this
   - file, You can obtain one at http://mozilla.org/MPL/2.0/. -->

<svg
	width="16"
	height="16"
	viewBox="0 0 16 16"
	fill="context-fill"
	fill-opacity="context-fill-opacity"
	xmlns="http://www.w3.org/2000/svg"
>
	<path
		fill-rule="evenodd"
		clip-rule="evenodd"
		d="M7.99474 1C4.13116 1.00285 1 4.13576 1 8C1 11.8642 4.13109 14.9971 7.99459 15C7.99795 15 8.0013 15 8.00466 15H8.00532C11.8689 14.9971 15 11.8642 15 8C15 4.13579 11.8689 1.00289 8.00536 1L8.00463 1L8 1H7.99539C7.99517 1 7.99496 1 7.99474 1ZM8 2.33335C6.69336 4.14455 6.0069 5.84066 5.89228 7.5H10.1077C9.9931 5.84066 9.30664 4.14455 8 2.33335ZM11.1099 7.5C11.0005 5.69597 10.3009 3.91278 9.05279 2.09206C11.7043 2.56135 13.7544 4.77192 13.9795 7.5H11.1099ZM10.1077 8.5H5.89228C6.0069 10.1593 6.69336 11.8555 8 13.6666C9.30664 11.8555 9.9931 10.1593 10.1077 8.5ZM9.0528 13.9079C10.3009 12.0872 11.0006 10.304 11.1099 8.5H13.9795C13.7544 11.2281 11.7043 13.4386 9.0528 13.9079ZM6.9472 13.9079C5.69907 12.0872 4.99945 10.304 4.89015 8.5H2.02054C2.2456 11.2281 4.29575 13.4386 6.9472 13.9079ZM4.89015 7.5C4.99945 5.69597 5.69907 3.91278 6.94721 2.09206C4.29575 2.56135 2.2456 4.77192 2.02054 7.5H4.89015Z"
	/>
</svg>
