<!-- This Source Code Form is subject to the terms of the Mozilla Public
   - License, v. 2.0. If a copy of the MPL was not distributed with this
   - file, You can obtain one at http://mozilla.org/MPL/2.0/. -->

<svg
	width="16"
	height="16"
	viewBox="0 0 16 16"
	fill="context-fill"
	fill-opacity="context-fill-opacity"
	xmlns="http://www.w3.org/2000/svg"
>
	<path
		fill-rule="evenodd"
		clip-rule="evenodd"
		d="M2 3C2 3.55228 2.44772 4 3 4C3.55228 4 4 3.55228 4 3C4 2.44772 3.55228 2 3 2C2.44772 2 2 2.44772 2 3ZM3 1C1.89543 1 1 1.89543 1 3C1 4.10457 1.89543 5 3 5C4.10457 5 5 4.10457 5 3C5 1.89543 4.10457 1 3 1ZM12 3C12 3.55228 12.4477 4 13 4C13.5523 4 14 3.55228 14 3C14 2.44772 13.5523 2 13 2C12.4477 2 12 2.44772 12 3ZM13 1C11.8954 1 11 1.89543 11 3C11 4.10457 11.8954 5 13 5C14.1046 5 15 4.10457 15 3C15 1.89543 14.1046 1 13 1ZM8 4C7.44772 4 7 3.55228 7 3C7 2.44772 7.44772 2 8 2C8.55228 2 9 2.44772 9 3C9 3.55228 8.55228 4 8 4ZM6 3C6 1.89543 6.89543 1 8 1C9.10457 1 10 1.89543 10 3C10 4.10457 9.10457 5 8 5C6.89543 5 6 4.10457 6 3ZM2 13C2 13.5523 2.44772 14 3 14C3.55228 14 4 13.5523 4 13C4 12.4477 3.55228 12 3 12C2.44772 12 2 12.4477 2 13ZM3 11C1.89543 11 1 11.8954 1 13C1 14.1046 1.89543 15 3 15C4.10457 15 5 14.1046 5 13C5 11.8954 4.10457 11 3 11ZM13 14C12.4477 14 12 13.5523 12 13C12 12.4477 12.4477 12 13 12C13.5523 12 14 12.4477 14 13C14 13.5523 13.5523 14 13 14ZM11 13C11 11.8954 11.8954 11 13 11C14.1046 11 15 11.8954 15 13C15 14.1046 14.1046 15 13 15C11.8954 15 11 14.1046 11 13ZM7 13C7 13.5523 7.44772 14 8 14C8.55228 14 9 13.5523 9 13C9 12.4477 8.55228 12 8 12C7.44772 12 7 12.4477 7 13ZM8 11C6.89543 11 6 11.8954 6 13C6 14.1046 6.89543 15 8 15C9.10457 15 10 14.1046 10 13C10 11.8954 9.10457 11 8 11ZM3 9C2.44772 9 2 8.55228 2 8C2 7.44772 2.44772 7 3 7C3.55228 7 4 7.44772 4 8C4 8.55228 3.55228 9 3 9ZM1 8C1 6.89543 1.89543 6 3 6C4.10457 6 5 6.89543 5 8C5 9.10457 4.10457 10 3 10C1.89543 10 1 9.10457 1 8ZM12 8C12 8.55228 12.4477 9 13 9C13.5523 9 14 8.55228 14 8C14 7.44772 13.5523 7 13 7C12.4477 7 12 7.44772 12 8ZM13 6C11.8954 6 11 6.89543 11 8C11 9.10457 11.8954 10 13 10C14.1046 10 15 9.10457 15 8C15 6.89543 14.1046 6 13 6ZM8 9C7.44772 9 7 8.55228 7 8C7 7.44772 7.44772 7 8 7C8.55228 7 9 7.44772 9 8C9 8.55228 8.55228 9 8 9ZM6 8C6 6.89543 6.89543 6 8 6C9.10457 6 10 6.89543 10 8C10 9.10457 9.10457 10 8 10C6.89543 10 6 9.10457 6 8Z"
	/>
</svg>
