<!-- This Source Code Form is subject to the terms of the Mozilla Public
   - License, v. 2.0. If a copy of the MPL was not distributed with this
   - file, You can obtain one at http://mozilla.org/MPL/2.0/. -->

<svg
	width="16"
	height="16"
	viewBox="0 0 16 16"
	fill="context-fill"
	fill-opacity="context-fill-opacity"
	xmlns="http://www.w3.org/2000/svg"
>
	<path
		fill-rule="evenodd"
		clip-rule="evenodd"
		d="M1.4715 4.19378C1.96787 2.91738 3.00324 2 4.5 2C5.93599 2 6.93612 2.72327 7.55914 3.41552C7.73284 3.60851 7.87919 3.80098 8 3.97817C8.1208 3.80098 8.26716 3.60851 8.44085 3.41552C9.06387 2.72327 10.064 2 11.5 2C12.9968 2 14.0321 2.91738 14.5285 4.19378C15.017 5.44985 15.0028 7.07266 14.4743 8.65811C14.0894 9.81287 13.1892 10.9872 12.2345 12.0002C11.2696 13.0239 10.2028 13.9306 9.42585 14.5483C8.5857 15.2162 7.41428 15.2162 6.57414 14.5483C5.79718 13.9306 4.73037 13.0239 3.76553 12.0002C2.81079 10.9872 1.91058 9.81287 1.52566 8.65811C0.997178 7.07266 0.983025 5.44986 1.4715 4.19378ZM8.46423 5.1857L8.47061 5.17073C8.47657 5.15699 8.48636 5.13494 8.50011 5.10579C8.52763 5.0474 8.57077 4.96097 8.63032 4.85588C8.74998 4.64471 8.9328 4.36375 9.18414 4.08448C9.68612 3.52673 10.436 3 11.5 3C12.5032 3 13.2179 3.58261 13.5965 4.55622C13.983 5.55014 13.9972 6.92734 13.5257 8.34189C13.2117 9.28362 12.4364 10.3279 11.5067 11.3143C10.5872 12.29 9.56077 13.1635 8.80353 13.7655C8.32771 14.1438 7.67228 14.1438 7.19645 13.7655C6.43922 13.1635 5.4128 12.29 4.49325 11.3143C3.5636 10.3279 2.78826 9.28361 2.47435 8.34189C2.00283 6.92734 2.01698 5.55014 2.4035 4.55622C2.78213 3.58262 3.49676 3 4.5 3C5.56401 3 6.31387 3.52673 6.81585 4.08448C7.06719 4.36375 7.25 4.64471 7.36967 4.85588C7.42922 4.96097 7.47235 5.0474 7.49988 5.10579C7.51362 5.13494 7.52342 5.15698 7.52937 5.17073L7.53542 5.18492L7.53602 5.18636C7.61227 5.37548 7.796 5.5 7.99999 5.5C8.20431 5.5 8.38821 5.37532 8.46423 5.1857Z"
	/>
</svg>
