<!-- This Source Code Form is subject to the terms of the Mozilla Public
   - License, v. 2.0. If a copy of the MPL was not distributed with this
   - file, You can obtain one at http://mozilla.org/MPL/2.0/. -->

<svg
	width="16"
	height="16"
	viewBox="0 0 16 16"
	fill="context-fill"
	fill-opacity="context-fill-opacity"
	xmlns="http://www.w3.org/2000/svg"
>
	<path
		fill-rule="evenodd"
		clip-rule="evenodd"
		d="M8.31561 2.11159C8.13179 1.96199 7.86821 1.96199 7.68439 2.11159L2.18439 6.58775C2.06772 6.6827 2 6.82513 2 6.97555V13.5001C2 13.7762 2.22386 14.0001 2.5 14.0001L5 14C5.27615 14 5.5 13.7762 5.5 13.5V9.50002C5.5 8.67159 6.17157 8.00002 7 8.00002H9C9.82843 8.00002 10.5 8.67159 10.5 9.50002V13.5C10.5 13.7762 10.7239 14 11 14L13.5 14.0001C13.7761 14.0001 14 13.7762 14 13.5001V6.97555C14 6.82513 13.9323 6.6827 13.8156 6.58775L8.31561 2.11159ZM7.05317 1.33599C7.60462 0.88719 8.39538 0.887191 8.94683 1.33599L14.4468 5.81215C14.7968 6.097 15 6.52429 15 6.97555V13.5001C15 14.3285 14.3284 15.0001 13.5 15.0001L11 15C10.1716 15 9.5 14.3285 9.5 13.5V9.50002C9.5 9.22388 9.27614 9.00002 9 9.00002H7C6.72386 9.00002 6.5 9.22388 6.5 9.50002V13.5C6.5 14.3285 5.82844 15 5.00001 15L2.50001 15.0001C1.67158 15.0001 1 14.3285 1 13.5001V6.97555C1 6.52429 1.20316 6.097 1.55317 5.81215L7.05317 1.33599Z"
	/>
</svg>
