<!-- This Source Code Form is subject to the terms of the Mozilla Public
   - License, v. 2.0. If a copy of the MPL was not distributed with this
   - file, You can obtain one at http://mozilla.org/MPL/2.0/. -->

<svg
	width="16"
	height="16"
	viewBox="0 0 16 16"
	fill="context-fill"
	fill-opacity="context-fill-opacity"
	xmlns="http://www.w3.org/2000/svg"
>
	<path
		fill-rule="evenodd"
		clip-rule="evenodd"
		d="M3.5 1C3.22386 1 3 1.22386 3 1.5C3 1.77614 3.22386 2 3.5 2H4V5C4 6.50601 4.83229 7.81764 6.062 8.5C4.83229 9.18236 4 10.494 4 12V14H3.5C3.22386 14 3 14.2239 3 14.5C3 14.7761 3.22386 15 3.5 15H4H12H12.5C12.7761 15 13 14.7761 13 14.5C13 14.2239 12.7761 14 12.5 14H12V12C12 10.494 11.1677 9.18236 9.938 8.5C11.1677 7.81764 12 6.50601 12 5V2H12.5C12.7761 2 13 1.77614 13 1.5C13 1.22386 12.7761 1 12.5 1H12H4H3.5ZM5 5V2H11V5C11 6.06774 10.4422 7.00519 9.60209 7.53685C9.26243 7.75181 9 8.09804 9 8.5H7C7 8.09804 6.73757 7.75181 6.39791 7.53685C5.55781 7.00519 5 6.06774 5 5Z"
	/>
</svg>
