<!-- This Source Code Form is subject to the terms of the Mozilla Public
   - License, v. 2.0. If a copy of the MPL was not distributed with this
   - file, You can obtain one at http://mozilla.org/MPL/2.0/. -->

<svg
	width="16"
	height="16"
	viewBox="0 0 16 16"
	fill="context-fill"
	fill-opacity="context-fill-opacity"
	xmlns="http://www.w3.org/2000/svg"
>
	<path
		d="M12 2H4C2.89543 2 2 2.89543 2 4V12C2 13.1046 2.89543 14 4 14H5.5C5.77614 14 6 14.2239 6 14.5C6 14.7761 5.77614 15 5.5 15H4C2.34315 15 1 13.6569 1 12V4C1 2.34315 2.34315 1 4 1H12C13.6569 1 15 2.34315 15 4V5.5C15 5.77614 14.7761 6 14.5 6C14.2239 6 14 5.77614 14 5.5V4C14 2.89543 13.1046 2 12 2Z"
	/>
	<path
		fill-rule="evenodd"
		clip-rule="evenodd"
		d="M6.68323 6.05078C6.50357 5.9909 6.30548 6.03766 6.17157 6.17157C6.03765 6.30549 5.99089 6.50357 6.05078 6.68324L8.52565 14.1079C8.592 14.3069 8.77558 14.4434 8.98531 14.4495C9.19504 14.4557 9.38631 14.3303 9.46423 14.1354L10.5968 11.3039L13.1464 13.8536C13.3417 14.0488 13.6583 14.0488 13.8536 13.8536C14.0488 13.6583 14.0488 13.3417 13.8536 13.1464L11.3039 10.5968L14.1354 9.46424C14.3303 9.38631 14.4557 9.19504 14.4495 8.98531C14.4434 8.77558 14.3069 8.59201 14.1079 8.52566L6.68323 6.05078ZM9.94997 10.2285L9.04269 12.4967L7.31569 7.3157L12.4967 9.0427L10.2285 9.94998C10.1015 10.0008 10.0008 10.1015 9.94997 10.2285Z"
	/>
</svg>
