<!-- This Source Code Form is subject to the terms of the Mozilla Public
   - License, v. 2.0. If a copy of the MPL was not distributed with this
   - file, You can obtain one at http://mozilla.org/MPL/2.0/. -->

<svg
	width="16"
	height="16"
	viewBox="0 0 16 16"
	fill="context-fill"
	fill-opacity="context-fill-opacity"
	xmlns="http://www.w3.org/2000/svg"
>
	<path
		fill-rule="evenodd"
		clip-rule="evenodd"
		d="M12 2H4C2.89543 2 2 2.89543 2 4V12C2 13.1046 2.89543 14 4 14H5.5C5.77614 14 6 14.2239 6 14.5C6 14.7761 5.77614 15 5.5 15H4C2.34315 15 1 13.6569 1 12V4C1 2.34315 2.34315 1 4 1H12C13.6569 1 15 2.34315 15 4V5.5C15 5.77614 14.7761 6 14.5 6C14.2239 6 14 5.77614 14 5.5V4C14 2.89543 13.1046 2 12 2ZM10.5 7C11.3284 7 12 6.32843 12 5.5C12 4.67157 11.3284 4 10.5 4C9.67157 4 9 4.67157 9 5.5C9 6.32843 9.67157 7 10.5 7ZM11 5.5C11 5.77614 10.7761 6 10.5 6C10.2239 6 10 5.77614 10 5.5C10 5.22386 10.2239 5 10.5 5C10.7761 5 11 5.22386 11 5.5ZM10.4271 13.2917L10.4173 13.3306L10.2555 13.9781C10.2442 14.0233 10.2307 14.0675 10.2151 14.1105C10.2063 14.135 10.1967 14.1591 10.1866 14.1828C10.1189 14.3409 10.0225 14.4821 9.90469 14.6008C9.65769 14.8498 9.31636 15 8.94669 15C8.00477 15 7.3528 14.0592 7.68353 13.1773L8.125 12L8.14148 11.9561L8.42987 11.187L8.47538 11.0657C8.48729 11.0339 8.4638 11 8.42987 11H8.30028H7.5L7.47894 10.9999C7.46342 10.9996 7.44796 10.9992 7.43256 10.9985C6.63543 10.9632 6 10.3058 6 9.5C6 8.67157 6.67157 8 7.5 8H13.5C14.3284 8 15 8.67157 15 9.5C15 10.3058 14.3646 10.9632 13.5674 10.9985L13.5378 10.9995C13.5253 10.9998 13.5126 11 13.5 11H12.8925H12.6378C12.5711 11 12.525 11.0666 12.5484 11.129L12.6378 11.3675L12.8644 11.9718L12.875 12L13.3165 13.1773C13.6472 14.0592 12.9952 15 12.0533 15C11.6836 15 11.3423 14.8498 11.0953 14.6008C10.9775 14.4821 10.8811 14.3409 10.8134 14.1828C10.8033 14.1591 10.7937 14.135 10.7849 14.1105C10.7693 14.0675 10.7558 14.0233 10.7445 13.9781L10.5827 13.3306L10.5729 13.2917C10.5539 13.2158 10.4461 13.2158 10.4271 13.2917ZM11.6121 11.4802C11.3435 10.764 11.8729 10 12.6378 10H13.5C13.7761 10 14 9.77614 14 9.5C14 9.22386 13.7761 9 13.5 9H7.5C7.22386 9 7 9.22386 7 9.5C7 9.77614 7.22386 10 7.5 10H8.42987C9.162 10 9.66878 10.7313 9.41171 11.4168L8.61986 13.5284C8.53428 13.7566 8.70297 14 8.94669 14C9.10686 14 9.24648 13.891 9.28532 13.7356L9.45693 13.0492C9.7284 11.9633 11.2716 11.9633 11.5431 13.0492L11.7147 13.7356C11.7535 13.891 11.8931 14 12.0533 14C12.297 14 12.4657 13.7566 12.3801 13.5284L11.6121 11.4802Z"
	/>
</svg>
