<!-- This Source Code Form is subject to the terms of the Mozilla Public
   - License, v. 2.0. If a copy of the MPL was not distributed with this
   - file, You can obtain one at http://mozilla.org/MPL/2.0/. -->

<svg
	width="16"
	height="16"
	viewBox="0 0 16 16"
	fill="context-fill"
	fill-opacity="context-fill-opacity"
	xmlns="http://www.w3.org/2000/svg"
>
	<path
		fill-rule="evenodd"
		clip-rule="evenodd"
		d="M8 2C7.44772 2 7 2.44772 7 3V3.9C7 4.50751 6.50751 5 5.9 5H3.5C3.22386 5 3 5.22386 3 5.5V6.75C3 6.88807 3.11193 7 3.25 7H3.5C4.88071 7 6 8.11929 6 9.5C6 10.8807 4.88071 12 3.5 12H3.25C3.11193 12 3 12.1119 3 12.25V13.5C3 13.7761 3.22386 14 3.5 14H12.5C12.7761 14 13 13.7761 13 13.5V5.5C13 5.22386 12.7761 5 12.5 5H10.1C9.49249 5 9 4.50751 9 3.9V3C9 2.44772 8.55228 2 8 2ZM6 3C6 1.89543 6.89543 1 8 1C9.10457 1 10 1.89543 10 3V3.9C10 3.95523 10.0448 4 10.1 4H12.5C13.3284 4 14 4.67157 14 5.5V13.5C14 14.3284 13.3284 15 12.5 15H3.5C2.67157 15 2 14.3284 2 13.5V12.25C2 11.5596 2.55964 11 3.25 11H3.5C4.32843 11 5 10.3284 5 9.5C5 8.67157 4.32843 8 3.5 8H3.25C2.55964 8 2 7.44036 2 6.75V5.5C2 4.67157 2.67157 4 3.5 4H5.9C5.95523 4 6 3.95523 6 3.9V3Z"
	/>
</svg>
