<!-- This Source Code Form is subject to the terms of the Mozilla Public
   - License, v. 2.0. If a copy of the MPL was not distributed with this
   - file, You can obtain one at http://mozilla.org/MPL/2.0/. -->

<svg
	width="16"
	height="16"
	viewBox="0 0 16 16"
	fill="context-fill"
	fill-opacity="context-fill-opacity"
	xmlns="http://www.w3.org/2000/svg"
>
	<path
		fill-rule="evenodd"
		clip-rule="evenodd"
		d="M7.96456 7C7.72194 5.30385 6.26324 4 4.5 4C2.567 4 1 5.567 1 7.5C1 9.433 2.567 11 4.5 11C6.26324 11 7.72194 9.69615 7.96456 8H12V9.5C12 9.77614 12.2239 10 12.5 10C12.7761 10 13 9.77614 13 9.5V8H14V9.5C14 9.77614 14.2239 10 14.5 10C14.7761 10 15 9.77614 15 9.5V7.5C15 7.22386 14.7761 7 14.5 7H7.96456ZM7 7.5C7 8.88071 5.88071 10 4.5 10C3.11929 10 2 8.88071 2 7.5C2 6.11929 3.11929 5 4.5 5C5.88071 5 7 6.11929 7 7.5Z"
	/>
</svg>
