<!-- This Source Code Form is subject to the terms of the Mozilla Public
   - License, v. 2.0. If a copy of the MPL was not distributed with this
   - file, You can obtain one at http://mozilla.org/MPL/2.0/. -->

<svg
	width="16"
	height="16"
	viewBox="0 0 16 16"
	fill="context-fill"
	fill-opacity="context-fill-opacity"
	xmlns="http://www.w3.org/2000/svg"
>
	<path
		fill-rule="evenodd"
		clip-rule="evenodd"
		d="M8 1C6.88632 1 5.65288 1.41365 4.69109 2.16934C3.72127 2.93134 3 4.06647 3 5.5C3 7.89126 4.65639 9.4463 5.69411 10.4205L5.69424 10.4206C5.75103 10.474 5.80596 10.5255 5.85867 10.5754C5.94733 10.6593 6 10.7805 6 10.9142V11.5C6 12.3284 6.67157 13 7.5 13H8.5C9.32843 13 10 12.3284 10 11.5V10.9142C10 10.7805 10.0527 10.6593 10.1413 10.5754C10.1941 10.5255 10.2491 10.4739 10.3059 10.4205C11.3436 9.4463 13 7.89126 13 5.5C13 4.06647 12.2787 2.93134 11.3089 2.16934C10.3471 1.41365 9.11368 1 8 1ZM4 5.5C4 4.43353 4.52873 3.56866 5.30891 2.95566C6.09712 2.33635 7.11368 2 8 2C8.88632 2 9.90288 2.33635 10.6911 2.95566C11.4713 3.56866 12 4.43353 12 5.5C12 7.44648 10.6459 8.72422 9.57383 9.73588L9.45401 9.84905C9.15739 10.1297 9 10.5175 9 10.9142V11.5C9 11.7761 8.77614 12 8.5 12H7.5C7.22386 12 7 11.7761 7 11.5V10.9142C7 10.5175 6.84261 10.1297 6.54599 9.84905L6.42617 9.73588C5.35407 8.72422 4 7.44648 4 5.5ZM6.5 14C6.22386 14 6 14.2239 6 14.5C6 14.7761 6.22386 15 6.5 15H9.5C9.77614 15 10 14.7761 10 14.5C10 14.2239 9.77614 14 9.5 14H6.5Z"
	/>
</svg>
