<!-- This Source Code Form is subject to the terms of the Mozilla Public
   - License, v. 2.0. If a copy of the MPL was not distributed with this
   - file, You can obtain one at http://mozilla.org/MPL/2.0/. -->

<svg
	width="16"
	height="16"
	viewBox="0 0 16 16"
    fill="context-fill"
	fill-opacity="context-fill-opacity"
	xmlns="http://www.w3.org/2000/svg"
>
	<path
		fill-rule="evenodd"
		clip-rule="evenodd"
		d="M7 1.5C7 1.22386 6.77614 1 6.5 1C6.22386 1 6 1.22386 6 1.5V3C4.34315 3 3 4.34315 3 6H1.5C1.22386 6 1 6.22386 1 6.5C1 6.77614 1.22386 7 1.5 7H3V9H1.5C1.22386 9 1 9.22386 1 9.5C1 9.77614 1.22386 10 1.5 10H3C3 11.6569 4.34315 13 6 13V14.5C6 14.7761 6.22386 15 6.5 15C6.77614 15 7 14.7761 7 14.5V13H9V14.5C9 14.7761 9.22386 15 9.5 15C9.77614 15 10 14.7761 10 14.5V13C11.6569 13 13 11.6569 13 10H14.5C14.7761 10 15 9.77614 15 9.5C15 9.22386 14.7761 9 14.5 9H13V7H14.5C14.7761 7 15 6.77614 15 6.5C15 6.22386 14.7761 6 14.5 6H13C13 4.34315 11.6569 3 10 3V1.5C10 1.22386 9.77614 1 9.5 1C9.22386 1 9 1.22386 9 1.5V3H7V1.5ZM12 6.5V6C12 4.89543 11.1046 4 10 4H9.5H6.5H6C4.89543 4 4 4.89543 4 6V6.5V9.5V10C4 11.1046 4.89543 12 6 12H6.5H9.5H10C11.1046 12 12 11.1046 12 10V9.5V6.5ZM9 7H7V9H9V7ZM7 6C6.44772 6 6 6.44772 6 7V9C6 9.55228 6.44772 10 7 10H9C9.55228 10 10 9.55228 10 9V7C10 6.44772 9.55228 6 9 6H7Z"
	/>
</svg>
