<!-- This Source Code Form is subject to the terms of the Mozilla Public
   - License, v. 2.0. If a copy of the MPL was not distributed with this
   - file, You can obtain one at http://mozilla.org/MPL/2.0/. -->
<svg
	width="16"
	height="16"
	viewBox="0 0 16 16"
	fill="context-fill"
	fill-opacity="context-fill-opacity"
	xmlns="http://www.w3.org/2000/svg"
>
	<path
		fill-rule="evenodd"
		clip-rule="evenodd"
		d="M1.99685 8.02299C1.99685 10.8119 4.15663 14.0033 7.97792 14.0033C11.4564 14.0033 13.1636 11.688 13.9424 10.0715C13.1039 10.0665 11.9988 10.003 10.9124 9.76469C9.82268 9.5256 8.62627 9.0841 7.77147 8.22942C6.86988 7.32795 6.39402 6.15611 6.1424 5.06313C5.89187 3.97492 5.84603 2.88889 5.86412 2.05423C4.24735 2.8645 1.99685 4.59263 1.99685 8.02299ZM1 8.02299C1 11.2411 3.49212 15 7.97792 15C12.1451 15 14.1106 12.097 14.9194 10.3362C15.2062 9.71182 14.6871 9.07702 14 9.075C12.386 9.07027 9.79144 8.83955 8.47635 7.52463C7.03333 6.0818 6.82436 3.63143 6.86127 2.05197C6.87799 1.33661 6.21697 0.777613 5.57187 1.08741C3.80364 1.93657 1 3.92855 1 8.02299Z"
	/>
</svg>
