<!-- This Source Code Form is subject to the terms of the Mozilla Public
   - License, v. 2.0. If a copy of the MPL was not distributed with this
   - file, You can obtain one at http://mozilla.org/MPL/2.0/. -->

<svg
	width="16"
	height="16"
	viewBox="0 0 16 16"
	fill="context-fill"
	fill-opacity="context-fill-opacity"
	xmlns="http://www.w3.org/2000/svg"
>
	<path
		fill-rule="evenodd"
		clip-rule="evenodd"
		d="M7 3.5C7 3.22386 7.22386 3 7.5 3H13.5C13.7761 3 14 3.22386 14 3.5V8.76389C13.4692 8.28885 12.7684 8 12 8C10.3431 8 9 9.34315 9 11C9 12.6569 10.3431 14 12 14C13.6569 14 15 12.6569 15 11V3.5C15 2.67157 14.3284 2 13.5 2H7.5C6.67157 2 6 2.67157 6 3.5V9.76389C5.46924 9.28885 4.76835 9 4 9C2.34315 9 1 10.3431 1 12C1 13.6569 2.34315 15 4 15C5.65685 15 7 13.6569 7 12V3.5ZM6 12C6 10.8954 5.10457 10 4 10C2.89543 10 2 10.8954 2 12C2 13.1046 2.89543 14 4 14C5.10457 14 6 13.1046 6 12ZM14 11C14 9.89543 13.1046 9 12 9C10.8954 9 10 9.89543 10 11C10 12.1046 10.8954 13 12 13C13.1046 13 14 12.1046 14 11Z"
	/>
</svg>
