<!-- This Source Code Form is subject to the terms of the Mozilla Public
   - License, v. 2.0. If a copy of the MPL was not distributed with this
   - file, You can obtain one at http://mozilla.org/MPL/2.0/. -->

<svg
	width="16"
	height="16"
	viewBox="0 0 16 16"
	fill="context-fill"
	fill-opacity="context-fill-opacity"
	xmlns="http://www.w3.org/2000/svg"
>
	<path
		fill-rule="evenodd"
		clip-rule="evenodd"
		d="M2 4V12C2 13.1046 2.89543 14 4 14H12C13.1046 14 14 13.1046 14 12V10.5C14 10.2239 14.2239 10 14.5 10C14.7761 10 15 10.2239 15 10.5V12C15 13.6569 13.6569 15 12 15H4C2.34315 15 1 13.6569 1 12V4C1 2.34315 2.34315 1 4 1H5.5C5.77614 1 6 1.22386 6 1.5C6 1.77614 5.77614 2 5.5 2H4C2.89543 2 2 2.89543 2 4ZM8.5 1C8.22386 1 8 1.22386 8 1.5C8 1.77614 8.22386 2 8.5 2H13.2929L7.14645 8.14645C6.95118 8.34171 6.95118 8.65829 7.14645 8.85355C7.34171 9.04882 7.65829 9.04882 7.85355 8.85355L14 2.70711V7.5C14 7.77614 14.2239 8 14.5 8C14.7761 8 15 7.77614 15 7.5V1.5C15 1.22386 14.7761 1 14.5 1H8.5Z"
	/>
</svg>
