<!-- This Source Code Form is subject to the terms of the Mozilla Public
   - License, v. 2.0. If a copy of the MPL was not distributed with this
   - file, You can obtain one at http://mozilla.org/MPL/2.0/. -->

<svg
	width="16"
	height="16"
	viewBox="0 0 16 16"
	fill="context-fill"
	fill-opacity="context-fill-opacity"
	xmlns="http://www.w3.org/2000/svg"
>
	<path
		fill-rule="evenodd"
		clip-rule="evenodd"
		d="M14.3536 1.64645C14.5488 1.84171 14.5488 2.15829 14.3536 2.35355L2.35355 14.3536C2.15829 14.5488 1.84171 14.5488 1.64645 14.3536C1.45118 14.1583 1.45118 13.8417 1.64645 13.6464L13.6464 1.64645C13.8417 1.45118 14.1583 1.45118 14.3536 1.64645Z"
		fill="#FF0000"
	/>
	<path
		fill-rule="evenodd"
		clip-rule="evenodd"
		d="M6 3.97487C6 2.88418 6.88418 2 7.97487 2C8.49864 2 9.00096 2.20807 9.37132 2.57843L9.64645 2.85355C9.84171 3.04882 10.1583 3.04882 10.3536 2.85355C10.5488 2.65829 10.5488 2.34171 10.3536 2.14645L10.0784 1.87132C9.52053 1.31342 8.76386 1 7.97487 1C6.3319 1 5 2.3319 5 3.97487V7C3.89543 7 3 7.89543 3 9V9.5C3 9.77614 3.22386 10 3.5 10C3.77614 10 4 9.77614 4 9.5V9C4 8.44772 4.44772 8 5 8H5.5C5.77614 8 6 7.77614 6 7.5V3.97487ZM10.5 7.5C10.5 7.22386 10.7239 7 11 7C12.1046 7 13 7.89543 13 9V13C13 14.1046 12.1046 15 11 15H5C4.72386 15 4.5 14.7761 4.5 14.5C4.5 14.2239 4.72386 14 5 14H11C11.5523 14 12 13.5523 12 13V9C12 8.44772 11.5523 8 11 8C10.7239 8 10.5 7.77614 10.5 7.5Z"
	/>
</svg>
