<!-- This Source Code Form is subject to the terms of the Mozilla Public
   - License, v. 2.0. If a copy of the MPL was not distributed with this
   - file, You can obtain one at http://mozilla.org/MPL/2.0/. -->

<svg
	width="16"
	height="16"
	viewBox="0 0 16 16"
	fill="context-fill"
	fill-opacity="context-fill-opacity"
	xmlns="http://www.w3.org/2000/svg"
>
	<path
		fill-rule="evenodd"
		clip-rule="evenodd"
		d="M5 2.5C5 2.22386 5.22386 2 5.5 2H8V5.5C8 6.32843 8.67157 7 9.5 7H13V11.5C13 11.7761 12.7761 12 12.5 12H5.5C5.22386 12 5 11.7761 5 11.5V2.5ZM12.2929 6L9 2.70711V5.5C9 5.77614 9.22386 6 9.5 6H12.2929ZM5.5 1C4.67157 1 4 1.67157 4 2.5V11.5C4 12.3284 4.67157 13 5.5 13H12.5C13.3284 13 14 12.3284 14 11.5V6.5C14 6.36739 13.9473 6.24021 13.8536 6.14645L8.85355 1.14645C8.75978 1.05268 8.63261 1 8.5 1H5.5ZM2.5 3H2.75C2.88807 3 3 3.11193 3 3.25V11.5C3 12.8807 4.11929 14 5.5 14H10H11.75C11.8881 14 12 14.1119 12 14.25V14.5C12 14.7761 11.7761 15 11.5 15H10H5.5C3.567 15 2 13.433 2 11.5V3.5C2 3.22386 2.22386 3 2.5 3Z"
	/>
</svg>
