<!-- This Source Code Form is subject to the terms of the Mozilla Public
   - License, v. 2.0. If a copy of the MPL was not distributed with this
   - file, You can obtain one at http://mozilla.org/MPL/2.0/. -->

<svg
	width="16"
	height="16"
	viewBox="0 0 16 16"
	fill="context-fill"
	fill-opacity="context-fill-opacity"
	xmlns="http://www.w3.org/2000/svg"
>
	<path
		fill-rule="evenodd"
		clip-rule="evenodd"
		d="M13.2146 6.23117C14.2401 5.28444 14.2636 3.67257 13.266 2.69645C12.2988 1.75018 10.7459 1.77089 9.80438 2.74262L7.36645 5.25883C6.27754 6.3827 6.47439 8.2179 7.77691 9.08563C8.00686 9.23881 8.06899 9.54927 7.9157 9.77905C7.7624 10.0088 7.45172 10.0709 7.22178 9.91773C5.39926 8.70359 5.12383 6.13573 6.64744 4.5632L9.08538 2.04699C10.4129 0.676865 12.6025 0.647664 13.9661 1.98189C15.3727 3.35819 15.3397 5.63089 13.8937 6.96576L11.832 8.86891C11.629 9.0563 11.3124 9.04377 11.1249 8.84092C10.9374 8.63806 10.9499 8.32171 11.1529 8.13432L13.2146 6.23117ZM8.65837 7.02718C10.399 7.60699 10.9369 9.80422 9.66063 11.1215L6.91779 13.9524C5.5885 15.3244 3.39545 15.3524 2.03154 14.0148C0.630292 12.6405 0.660629 10.3755 2.09818 9.03917L4.14617 7.13543C4.34851 6.94734 4.66514 6.95878 4.85336 7.16098C5.04159 7.36318 5.03015 7.67957 4.8278 7.86767L2.77982 9.7714C1.76004 10.7194 1.73852 12.3261 2.73254 13.301C3.70008 14.2499 5.2558 14.2301 6.19879 13.2568L8.94162 10.4259C9.70532 9.63764 9.38347 8.32287 8.34189 7.97592C8.07971 7.88859 7.93802 7.60542 8.02541 7.34343C8.11281 7.08144 8.39619 6.93985 8.65837 7.02718Z"
	/>
</svg>
