<!-- This Source Code Form is subject to the terms of the Mozilla Public
   - License, v. 2.0. If a copy of the MPL was not distributed with this
   - file, You can obtain one at http://mozilla.org/MPL/2.0/. -->

<svg
	width="16"
	height="16"
	viewBox="0 0 16 16"
	fill="context-fill"
	fill-opacity="context-fill-opacity"
	xmlns="http://www.w3.org/2000/svg"
>
	<path
		fill-rule="evenodd"
		clip-rule="evenodd"
		d="M1 3.5C1 2.11929 2.11929 1 3.5 1H12.5C13.8807 1 15 2.11929 15 3.5V12.5C15 13.8807 13.8807 15 12.5 15H3.5C2.11929 15 1 13.8807 1 12.5V3.5ZM3.5 2C2.67157 2 2 2.67157 2 3.5V12.5C2 13.3284 2.67157 14 3.5 14H12.5C13.3284 14 14 13.3284 14 12.5V3.5C14 2.67157 13.3284 2 12.5 2H3.5ZM5 6C5.55228 6 6 5.55228 6 5C6 4.44772 5.55228 4 5 4C4.44772 4 4 4.44772 4 5C4 5.55228 4.44772 6 5 6ZM5 7C6.10457 7 7 6.10457 7 5C7 3.89543 6.10457 3 5 3C3.89543 3 3 3.89543 3 5C3 6.10457 3.89543 7 5 7ZM10.424 8.235C10.3326 8.08881 10.1724 8 10 8C9.8276 8 9.66737 8.08881 9.576 8.235L7.48645 11.5783L5.91603 9.22265C5.82329 9.08355 5.66718 9 5.5 9C5.33282 9 5.17671 9.08355 5.08397 9.22265L3.08397 12.2226C2.98169 12.3761 2.97215 12.5734 3.05916 12.7359C3.14617 12.8985 3.3156 13 3.5 13H7.49941H7.50055H12.5C12.6818 13 12.8492 12.9014 12.9373 12.7424C13.0254 12.5834 13.0203 12.3891 12.924 12.235L10.424 8.235ZM5.5 10.4014L6.56574 12H4.43426L5.5 10.4014ZM10 9.4434L11.5979 12H8.40212L10 9.4434Z"
	/>
</svg>
