<!-- This Source Code Form is subject to the terms of the Mozilla Public
   - License, v. 2.0. If a copy of the MPL was not distributed with this
   - file, You can obtain one at http://mozilla.org/MPL/2.0/. -->

<svg
	width="16"
	height="16"
	viewBox="0 0 16 16"
	fill="context-fill"
	fill-opacity="context-fill-opacity"
	xmlns="http://www.w3.org/2000/svg"
>
	<path
		fill-rule="evenodd"
		clip-rule="evenodd"
		d="M4.22359 2.66886C5.21134 1.5514 6.62073 1 8 1C9.38087 1 10.7729 1.55261 11.7513 2.67075C12.7354 3.79545 13.2608 5.44507 12.9961 7.56202C12.6286 10.502 10.5021 13.1335 9.28072 14.4371C8.57825 15.1868 7.41998 15.1808 6.72385 14.4269C5.51727 13.1201 3.42307 10.4972 3.00502 7.57071C2.70188 5.44862 3.22817 3.795 4.22359 2.66886ZM4.97285 3.33114C4.20042 4.205 3.72671 5.55138 3.99497 7.42929C4.36695 10.0332 6.27159 12.4629 7.45857 13.7485C7.76155 14.0766 8.24645 14.0783 8.55099 13.7533C9.75429 12.4691 11.6787 10.0392 12.0039 7.43798C12.2392 5.55493 11.7646 4.20455 10.9987 3.32925C10.2271 2.44739 9.11913 2 8 2C6.87926 2 5.75295 2.4486 4.97285 3.33114Z"
	/>
	<path
		fill-rule="evenodd"
		clip-rule="evenodd"
		d="M8 7C8.55228 7 9 6.55228 9 6C9 5.44772 8.55228 5 8 5C7.44771 5 7 5.44772 7 6C7 6.55228 7.44771 7 8 7ZM8 8C9.10457 8 10 7.10457 10 6C10 4.89543 9.10457 4 8 4C6.89543 4 6 4.89543 6 6C6 7.10457 6.89543 8 8 8Z"
	/>
</svg>
