<!-- This Source Code Form is subject to the terms of the Mozilla Public
   - License, v. 2.0. If a copy of the MPL was not distributed with this
   - file, You can obtain one at http://mozilla.org/MPL/2.0/. -->

<svg
	width="16"
	height="16"
	viewBox="0 0 16 16"
	fill="context-fill"
	fill-opacity="context-fill-opacity"
	xmlns="http://www.w3.org/2000/svg"
>
	<path
		fill-rule="evenodd"
		clip-rule="evenodd"
		d="M5.5 1C4.67157 1 4 1.67157 4 2.5V5H2.5C1.67157 5 1 5.67157 1 6.5V11.5C1 12.3284 1.67157 13 2.5 13H4V13.5C4 14.3284 4.67157 15 5.5 15H10.5C11.3284 15 12 14.3284 12 13.5V13H13.5C14.3284 13 15 12.3284 15 11.5V6.5C15 5.67157 14.3284 5 13.5 5H12V2.5C12 1.67157 11.3284 1 10.5 1H5.5ZM11 5V2.5C11 2.22386 10.7761 2 10.5 2H5.5C5.22386 2 5 2.22386 5 2.5V5H11ZM4.5 6H2.5C2.22386 6 2 6.22386 2 6.5V11.5C2 11.7761 2.22386 12 2.5 12H4V10.5C4 9.67157 4.67157 9 5.5 9H10.5C11.3284 9 12 9.67157 12 10.5V12H13.5C13.7761 12 14 11.7761 14 11.5V6.5C14 6.22386 13.7761 6 13.5 6H11.5H4.5ZM5.5 10C5.22386 10 5 10.2239 5 10.5V13.5C5 13.7761 5.22386 14 5.5 14H10.5C10.7761 14 11 13.7761 11 13.5V10.5C11 10.2239 10.7761 10 10.5 10H5.5Z"
	/>
</svg>
