<!-- This Source Code Form is subject to the terms of the Mozilla Public
   - License, v. 2.0. If a copy of the MPL was not distributed with this
   - file, You can obtain one at http://mozilla.org/MPL/2.0/. -->

<svg
	width="16"
	height="16"
	viewBox="0 0 16 16"
	fill="context-fill"
	fill-opacity="context-fill-opacity"
	xmlns="http://www.w3.org/2000/svg"
>
	<path
		fill-rule="evenodd"
		clip-rule="evenodd"
		d="M8 14C11.3137 14 14 11.3137 14 8C14 4.68629 11.3137 2 8 2C4.68629 2 2 4.68629 2 8C2 11.3137 4.68629 14 8 14ZM8 15C11.866 15 15 11.866 15 8C15 4.13401 11.866 1 8 1C4.13401 1 1 4.13401 1 8C1 11.866 4.13401 15 8 15ZM7.25 11.25C7.25 10.8358 7.58579 10.5 8 10.5C8.41421 10.5 8.75 10.8358 8.75 11.25C8.75 11.6642 8.41421 12 8 12C7.58579 12 7.25 11.6642 7.25 11.25Z"
	/>
	<path
		d="M8.10765 4H8C7.32062 4.00001 6.82595 4.34196 6.52145 4.64645C6.36785 4.80006 6.25378 4.95232 6.17773 5.0664C6.13942 5.12386 6.10999 5.1728 6.08932 5.20896C6.07897 5.22708 6.07076 5.24209 6.06469 5.25347L6.05716 5.26781L6.05458 5.27284L6.05359 5.27481L6.05279 5.27639C5.92929 5.52338 6.02941 5.82372 6.27639 5.94721C6.5225 6.07027 6.82158 5.97131 6.94589 5.72624L6.94704 5.72407C6.94878 5.72081 6.95229 5.71433 6.95756 5.7051C6.96814 5.68658 6.98558 5.65739 7.00978 5.62111C7.05872 5.54768 7.13216 5.44995 7.22855 5.35356C7.42406 5.15806 7.67938 5.00001 8.00001 5L8.10766 5C8.57725 5 8.97102 5.17152 9.16208 5.4566C9.39254 5.80046 9.51286 6.1362 9.45971 6.40194C9.41386 6.63119 9.32785 6.8311 9.22758 7.00041C9.03341 7.32827 8.59354 7.49999 8 7.49999C7.72386 7.49999 7.5 7.72385 7.5 7.99999V9C7.5 9.27615 7.72386 9.5 8 9.5C8.27614 9.5 8.5 9.27615 8.5 9V8.46567C9.09466 8.38138 9.724 8.1246 10.088 7.50999C10.2363 7.25964 10.369 6.95463 10.4403 6.59806C10.5745 5.9271 10.2619 5.30145 9.99278 4.89987C9.5512 4.241 8.7744 3.99999 8.10765 4Z"
	/>
</svg>
