<!-- This Source Code Form is subject to the terms of the Mozilla Public
   - License, v. 2.0. If a copy of the MPL was not distributed with this
   - file, You can obtain one at http://mozilla.org/MPL/2.0/. -->

<svg
	width="16"
	height="16"
	viewBox="0 0 16 16"
	xmlns="http://www.w3.org/2000/svg"
>
	<path
		fill-rule="evenodd"
		clip-rule="evenodd"
        fill="context-fill"
        fill-opacity="context-fill-opacity"
		d="M8 5C6.34315 5 5 6.34315 5 8C5 9.65685 6.34315 11 8 11C9.65685 11 11 9.65685 11 8C11 6.34315 9.65685 5 8 5Z"
	/>
	<path
		fill-rule="evenodd"
		clip-rule="evenodd"
		d="M2 8C2 11.3137 4.68629 14 8 14C11.3137 14 14 11.3137 14 8C14 4.68629 11.3137 2 8 2C4.68629 2 2 4.68629 2 8ZM8 1C4.13401 1 1 4.13401 1 8C1 11.866 4.13401 15 8 15C11.866 15 15 11.866 15 8C15 4.13401 11.866 1 8 1Z"
		fill="context-fill"
        fill-opacity="1"
	/>
</svg>
