<!-- This Source Code Form is subject to the terms of the Mozilla Public
   - License, v. 2.0. If a copy of the MPL was not distributed with this
   - file, You can obtain one at http://mozilla.org/MPL/2.0/. -->

<svg
	width="16"
	height="16"
	viewBox="0 0 16 16"
	fill="context-fill"
	fill-opacity="context-fill-opacity"
	xmlns="http://www.w3.org/2000/svg"
>
	<path
		fill-rule="evenodd"
		clip-rule="evenodd"
		d="M2.4418 9.72509C2.44883 9.71303 2.45544 9.70064 2.46161 9.68795C2.46589 9.67916 2.46995 9.67022 2.4738 9.66113C2.88808 8.68226 3.55634 7.828 4.41329 7.18912C5.40416 6.45038 6.59897 6.03563 7.83444 6.00154C9.06991 5.96744 10.2858 6.31566 11.3159 6.99862C12.0926 7.51359 12.7352 8.19994 13.197 9H10.5C10.2238 9 9.99998 9.22386 9.99998 9.5C9.99998 9.77614 10.2238 10 10.5 10H13.5C14.3284 10 15 9.32843 15 8.5V5.5C15 5.22386 14.7761 5 14.5 5C14.2238 5 14 5.22386 14 5.5V8.39444C13.4664 7.50649 12.7396 6.74365 11.868 6.16578C10.6664 5.3691 9.24808 4.96289 7.80687 5.00267C6.36567 5.04244 4.9719 5.52626 3.81603 6.388C2.82301 7.12833 2.04719 8.11658 1.56323 9.24895L1.55357 9.27167C1.54276 9.2972 1.53211 9.3228 1.5216 9.34847C1.41708 9.60385 1.56154 9.887 1.82371 9.97304C2.063 10.0516 2.31743 9.93861 2.4418 9.72509Z"
	/>
</svg>
