<!-- This Source Code Form is subject to the terms of the Mozilla Public
   - License, v. 2.0. If a copy of the MPL was not distributed with this
   - file, You can obtain one at http://mozilla.org/MPL/2.0/. -->

<svg
	width="16"
	height="16"
	viewBox="0 0 16 16"
	fill="context-fill"
	fill-opacity="context-fill-opacity"
	xmlns="http://www.w3.org/2000/svg"
>
	<path
		d="M13.98 8.49909C14.0029 8.22412 14.2244 8.00001 14.5004 8.00001C14.7763 8.00001 15.0018 8.22398 14.9822 8.49921C14.9702 8.66713 14.9521 8.83416 14.9282 9.00001C14.7295 10.3766 14.1237 11.6712 13.1774 12.7111C12.0047 13.9999 10.3935 14.805 8.65875 14.9689C6.92401 15.1329 5.19047 14.644 3.79705 13.5978C2.40362 12.5516 1.45048 11.0233 1.12398 9.31168C0.797471 7.60007 1.12107 5.82822 2.03151 4.34252C2.94195 2.85682 4.37377 1.76408 6.04705 1.27795C7.72034 0.791817 9.51478 0.947233 11.0796 1.71381C12.2982 2.31082 13.3093 3.24507 14 4.39443V1.5C14 1.22386 14.2239 1 14.5 1C14.7761 1 15 1.22386 15 1.5V4.5C15 5.32843 14.3284 6 13.5 6H10.5C10.2239 6 10 5.77614 10 5.5C10 5.22386 10.2239 5 10.5 5H13.197C12.6042 3.97307 11.7166 3.13859 10.64 2.61117C9.29854 1.95402 7.76026 1.82079 6.32583 2.23752C4.89141 2.65426 3.66398 3.59101 2.88351 4.86462C2.10303 6.13824 1.82563 7.65716 2.10553 9.12444C2.38543 10.5917 3.2025 11.9018 4.39702 12.7987C5.59153 13.6956 7.0776 14.1147 8.56471 13.9741C10.0518 13.8336 11.433 13.1434 12.4383 12.0386C13.3311 11.0574 13.8704 9.81186 13.98 8.49909Z"
	/>
</svg>
