<!-- This Source Code Form is subject to the terms of the Mozilla Public
   - License, v. 2.0. If a copy of the MPL was not distributed with this
   - file, You can obtain one at http://mozilla.org/MPL/2.0/. -->

<svg
	width="16"
	height="16"
	viewBox="0 0 16 16"
	fill="context-fill"
	fill-opacity="context-fill-opacity"
	xmlns="http://www.w3.org/2000/svg"
>
	<path
		fill-rule="evenodd"
		clip-rule="evenodd"
		d="M6 2.5C6 2.22386 6.22386 2 6.5 2H9.5C9.77614 2 10 2.22386 10 2.5V3H6V2.5ZM5 3H3.5H2.5C2.22386 3 2 3.22386 2 3.5C2 3.77614 2.22386 4 2.5 4H3V12.5C3 13.8807 4.11929 15 5.5 15H10.5C11.8807 15 13 13.8807 13 12.5V4H13.5C13.7761 4 14 3.77614 14 3.5C14 3.22386 13.7761 3 13.5 3H12.5H11V2.5C11 1.67157 10.3284 1 9.5 1H6.5C5.67157 1 5 1.67157 5 2.5V3ZM12 4H10.5H5.5H4V12.5C4 13.3284 4.67157 14 5.5 14H10.5C11.3284 14 12 13.3284 12 12.5V4Z"
	/>
</svg>
