<!-- This Source Code Form is subject to the terms of the Mozilla Public
   - License, v. 2.0. If a copy of the MPL was not distributed with this
   - file, You can obtain one at http://mozilla.org/MPL/2.0/. -->

<svg
	width="16"
	height="16"
	viewBox="0 0 16 16"
	fill="context-fill"
	fill-opacity="context-fill-opacity"
	xmlns="http://www.w3.org/2000/svg"
>
	<path
		fill-rule="evenodd"
		clip-rule="evenodd"
		d="M7.29292 4.46448L8.70714 3.05027L10.4749 4.818C10.6701 5.01326 10.9867 5.01326 11.182 4.818C11.3772 4.62274 11.3772 4.30615 11.182 4.11089L9.41425 2.34316C9.80477 1.95266 10.4379 1.95267 10.8284 2.34319L13.6569 5.17161C14.0474 5.56214 14.0474 6.1953 13.6569 6.58583L6.5858 13.6569C6.19527 14.0474 5.56211 14.0474 5.17158 13.6569L2.34316 10.8285C1.95263 10.4379 1.95263 9.80478 2.34316 9.41425L4.11092 11.182C4.30618 11.3773 4.62276 11.3773 4.81802 11.182C5.01329 10.9867 5.01329 10.6702 4.81802 10.4749L3.05026 8.70714L4.46448 7.29293L6.23222 9.06067C6.42749 9.25594 6.74407 9.25594 6.93933 9.06067C7.13459 8.86541 7.13459 8.54883 6.93933 8.35357L5.17159 6.58582L6.58582 5.17159L8.35356 6.93934C8.54882 7.1346 8.86541 7.1346 9.06067 6.93934C9.25593 6.74407 9.25593 6.42749 9.06067 6.23223L7.29292 4.46448ZM1.63605 8.70715C0.855 9.4882 0.855 10.7545 1.63605 11.5356L4.46448 14.364C5.24552 15.1451 6.51185 15.1451 7.2929 14.364L14.364 7.29293C15.145 6.51189 15.145 5.24555 14.364 4.46451L11.5355 1.63608C10.7545 0.855031 9.48816 0.855031 8.70712 1.63608L1.63605 8.70715Z"
	/>
</svg>
