<!-- This Source Code Form is subject to the terms of the Mozilla Public
   - License, v. 2.0. If a copy of the MPL was not distributed with this
   - file, You can obtain one at http://mozilla.org/MPL/2.0/. -->

<svg
	width="16"
	height="16"
	viewBox="0 0 16 16"
	fill="context-fill"
	fill-opacity="context-fill-opacity"
	xmlns="http://www.w3.org/2000/svg"
>
	<path
		fill-rule="evenodd"
		clip-rule="evenodd"
		d="M11 6.5C11 8.98528 8.98528 11 6.5 11C4.01472 11 2 8.98528 2 6.5C2 4.01472 4.01472 2 6.5 2C8.98528 2 11 4.01472 11 6.5ZM10.0195 10.7266C9.06578 11.5217 7.83875 12 6.5 12C3.46243 12 1 9.53757 1 6.5C1 3.46243 3.46243 1 6.5 1C9.53757 1 12 3.46243 12 6.5C12 7.83875 11.5217 9.06578 10.7266 10.0195L10.8536 10.1464L14.8536 14.1464C15.0488 14.3417 15.0488 14.6583 14.8536 14.8536C14.6583 15.0488 14.3417 15.0488 14.1464 14.8536L10.1464 10.8536L10.0195 10.7266Z"
	/>
</svg>
