<!-- This Source Code Form is subject to the terms of the Mozilla Public
   - License, v. 2.0. If a copy of the MPL was not distributed with this
   - file, You can obtain one at http://mozilla.org/MPL/2.0/. -->

<svg
	width="16"
	height="16"
	viewBox="0 0 16 16"
	fill="context-fill"
	fill-opacity="context-fill-opacity"
	xmlns="http://www.w3.org/2000/svg"
>
	<path
		fill-rule="evenodd"
		clip-rule="evenodd"
		d="M7.50001 1C6.67158 1 6.00001 1.67157 6.00001 2.5V3.96788C5.82975 4.05248 5.66566 4.14751 5.50856 4.25213L4.23688 3.51792C3.51944 3.10371 2.60206 3.34952 2.18785 4.06696L1.68785 4.93299C1.27363 5.65042 1.51944 6.56781 2.23688 6.98202L3.50882 7.71638C3.50297 7.81022 3.50001 7.90479 3.50001 8C3.50001 8.09519 3.50297 8.18975 3.50882 8.28357L2.23688 9.01792C1.51944 9.43214 1.27363 10.3495 1.68785 11.067L2.18785 11.933C2.60206 12.6504 3.51945 12.8962 4.23688 12.482L5.50852 11.7478C5.66563 11.8525 5.82973 11.9475 6.00001 12.0321V13.5C6.00001 14.3284 6.67158 15 7.50001 15H8.50001C9.32843 15 10 14.3284 10 13.5V12.0321C10.1703 11.9475 10.3344 11.8525 10.4915 11.7478L11.7632 12.482C12.4806 12.8962 13.398 12.6504 13.8122 11.933L14.3122 11.067C14.7264 10.3495 14.4806 9.43214 13.7632 9.01792L12.4912 8.28356C12.497 8.18974 12.5 8.09519 12.5 8C12.5 7.9048 12.497 7.81023 12.4912 7.71639L13.7632 6.98202C14.4806 6.56781 14.7264 5.65042 14.3122 4.93299L13.8122 4.06696C13.398 3.34952 12.4806 3.10371 11.7632 3.51792L10.4915 4.25214C10.3344 4.14752 10.1703 4.05248 10 3.96788V2.5C10 1.67157 9.32843 1 8.50001 1H7.50001ZM7.00001 2.5C7.00001 2.22386 7.22387 2 7.50001 2H8.50001C8.77615 2 9.00001 2.22386 9.00001 2.5V4.62777L9.3124 4.75423C9.61608 4.87716 9.89883 5.04162 10.1535 5.24073L10.4193 5.4485L12.2632 4.38395C12.5023 4.24588 12.8081 4.32781 12.9462 4.56696L13.4462 5.43299C13.5842 5.67213 13.5023 5.97793 13.2632 6.116L11.4202 7.18002L11.4665 7.51349C11.4886 7.67225 11.5 7.83465 11.5 8C11.5 8.16533 11.4886 8.32772 11.4665 8.48647L11.4202 8.81993L13.2632 9.88395C13.5023 10.022 13.5842 10.3278 13.4462 10.567L12.9462 11.433C12.8081 11.6721 12.5023 11.7541 12.2632 11.616L10.4193 10.5515L10.1536 10.7592C9.89885 10.9584 9.6161 11.1228 9.3124 11.2458L9.00001 11.3722V13.5C9.00001 13.7761 8.77615 14 8.50001 14H7.50001C7.22387 14 7.00001 13.7761 7.00001 13.5V11.3722L6.68762 11.2458C6.38392 11.1228 6.10118 10.9584 5.84646 10.7593L5.58068 10.5515L3.73688 11.616C3.49774 11.7541 3.19194 11.6721 3.05387 11.433L2.55387 10.567C2.4158 10.3278 2.49774 10.022 2.73688 9.88395L4.57979 8.81994L4.53348 8.48648C4.51144 8.32773 4.50001 8.16534 4.50001 8C4.50001 7.83465 4.51144 7.67224 4.53349 7.51347L4.5798 7.18001L2.73688 6.116C2.49774 5.97793 2.4158 5.67213 2.55387 5.43299L3.05387 4.56696C3.19194 4.32781 3.49774 4.24588 3.73688 4.38395L5.58072 5.44849L5.8465 5.24072C6.1012 5.04161 6.38394 4.87715 6.68762 4.75423L7.00001 4.62777V2.5ZM9 8C9 8.55228 8.55228 9 8 9C7.44772 9 7 8.55228 7 8C7 7.44772 7.44772 7 8 7C8.55228 7 9 7.44772 9 8ZM10 8C10 9.10457 9.10457 10 8 10C6.89543 10 6 9.10457 6 8C6 6.89543 6.89543 6 8 6C9.10457 6 10 6.89543 10 8Z"
	/>
</svg>
