<!-- This Source Code Form is subject to the terms of the Mozilla Public
   - License, v. 2.0. If a copy of the MPL was not distributed with this
   - file, You can obtain one at http://mozilla.org/MPL/2.0/. -->

<svg
	width="16"
	height="16"
	viewBox="0 0 16 16"
	fill="context-fill"
	fill-opacity="context-fill-opacity"
	xmlns="http://www.w3.org/2000/svg"
>
	<path
		fill-rule="evenodd"
		clip-rule="evenodd"
		d="M5.85114 12.1303L8 14.0034L10.1489 12.1303C11.9603 10.5514 13 8.26587 13 5.86285C13 5.44583 12.6286 4.94939 11.901 4.75984C10.2021 4.31724 9.14757 3.28348 8.00923 2.00667C8.00717 2.00436 8.00596 2.00347 8.00571 2.00328L8.00505 2.0029C8.00456 2.00268 8.00281 2.00208 8 2.00208C7.99719 2.00208 7.99544 2.00268 7.99495 2.0029L7.99429 2.00328C7.99404 2.00347 7.99283 2.00436 7.99077 2.00667C6.85242 3.28348 5.79791 4.31723 4.09899 4.75984C3.37144 4.94938 3 5.44582 3 5.86284C3 8.26586 4.03969 10.5514 5.85114 12.1303ZM3.84689 3.79214C2.85129 4.05151 2 4.83401 2 5.86284C2 8.55489 3.16474 11.1153 5.19406 12.8842L7.34292 14.7573C7.71948 15.0855 8.28052 15.0855 8.65708 14.7573L10.8059 12.8842C12.8353 11.1153 14 8.55489 14 5.86285C14 4.83402 13.1487 4.05152 12.1531 3.79214C10.762 3.42974 9.87682 2.59875 8.75565 1.34119C8.35253 0.889036 7.64747 0.889036 7.24435 1.34119C6.12317 2.59875 5.23797 3.42973 3.84689 3.79214Z"
	/>
	<path d="M8 14.5V2L9.5 3L12 4.5L13.5 5.5L13 8.5L12 11L10 13L8 14.5Z" />
</svg>
