<!-- This Source Code Form is subject to the terms of the Mozilla Public
   - License, v. 2.0. If a copy of the MPL was not distributed with this
   - file, You can obtain one at http://mozilla.org/MPL/2.0/. -->

<svg
	width="16"
	height="16"
	viewBox="0 0 16 16"
	fill="context-fill"
	fill-opacity="context-fill-opacity"
	xmlns="http://www.w3.org/2000/svg"
>
	<path
		fill-rule="evenodd"
		clip-rule="evenodd"
		d="M6.5 2C6.22386 2 6 2.22386 6 2.5V4H10V2.5C10 2.22386 9.77614 2 9.5 2H6.5ZM5 2.5V4H3.40499C2.63436 4 1.98911 4.58394 1.91243 5.35074L1.11243 13.3507C1.02413 14.2338 1.71756 15 2.60499 15H13.395C14.2824 15 14.9759 14.2338 14.8876 13.3507L14.0876 5.35075C14.0109 4.58394 13.3656 4 12.595 4H11V2.5C11 1.67157 10.3284 1 9.5 1H6.5C5.67157 1 5 1.67157 5 2.5ZM5.5 5H10.5H12.595C12.8519 5 13.067 5.19465 13.0925 5.45025L13.8925 13.4502C13.922 13.7446 13.6908 14 13.395 14H2.60499C2.30918 14 2.07804 13.7446 2.10747 13.4502L2.90747 5.45025C2.93303 5.19465 3.14811 5 3.40499 5H5.5ZM6 6.5C6 6.22386 5.77614 6 5.5 6C5.22386 6 5 6.22386 5 6.5C5 7.34618 5.40593 7.99108 5.99149 8.40748C6.56218 8.8133 7.29462 9 8 9C8.70538 9 9.43782 8.8133 10.0085 8.40748C10.5941 7.99108 11 7.34618 11 6.5C11 6.22386 10.7761 6 10.5 6C10.2239 6 10 6.22386 10 6.5C10 6.98715 9.78093 7.34226 9.42899 7.59252C9.06218 7.85336 8.54462 8 8 8C7.45538 8 6.93782 7.85336 6.57101 7.59252C6.21908 7.34226 6 6.98715 6 6.5Z"
	/>
</svg>
