<!-- This Source Code Form is subject to the terms of the Mozilla Public
   - License, v. 2.0. If a copy of the MPL was not distributed with this
   - file, You can obtain one at http://mozilla.org/MPL/2.0/. -->

<svg
	width="16"
	height="16"
	viewBox="0 0 16 16"
    fill="context-fill"
	fill-opacity="context-fill-opacity"
	xmlns="http://www.w3.org/2000/svg"
>
	<path
		fill-rule="evenodd"
		clip-rule="evenodd"
		d="M13.6131 6.89844C13.856 7.54714 13.9846 8.23323 13.9932 8.92605L12.7494 8.94139C12.5028 8.94444 12.3078 9.14732 12.2852 9.39291C12.2627 9.63851 12.4176 9.87347 12.6596 9.92131L13.8799 10.1626C13.7392 10.8741 13.4704 11.5547 13.0863 12.1708C12.9393 12.4066 12.983 12.7209 13.2057 12.8872C13.4284 13.0535 13.7453 13.0086 13.8952 12.7746C14.5024 11.8263 14.8732 10.7431 14.9728 9.61646C15.0863 8.33235 14.843 7.04204 14.27 5.88772L14.2661 5.8797L14.262 5.87171L14.2566 5.86079C13.6787 4.70914 12.7943 3.73951 11.701 3.05849L11.6905 3.05188L11.68 3.04545L11.6738 3.04167C10.5769 2.36535 9.31479 2.00505 8.02656 2.00016L8.01308 2L7.99961 2.00011L7.99507 2.00011C6.70554 2.00102 5.44151 2.35812 4.34235 3.03173L4.33173 3.03813L4.32125 3.04471L4.31779 3.04685C3.21968 3.72605 2.33096 4.69565 1.74973 5.84827L1.74563 5.8563L1.74164 5.86437L1.73901 5.86962C1.15802 7.03161 0.911853 8.33235 1.02807 9.62629C1.12924 10.7528 1.5016 11.8354 2.11014 12.7829C2.26032 13.0167 2.57736 13.0611 2.79979 12.8945C3.02222 12.728 3.0655 12.4136 2.91816 12.178C2.52775 11.5537 2.25585 10.8629 2.11585 10.1406L3.33702 9.90389C3.57914 9.85696 3.73492 9.62257 3.71332 9.37689C3.69172 9.13122 3.49743 8.92761 3.25084 8.92365L2.00712 8.90365C2.01826 8.21102 2.14942 7.52541 2.39479 6.87747L3.55802 7.31795C3.78867 7.40529 4.04439 7.28778 4.15515 7.06742C4.26591 6.84706 4.20765 6.57173 3.99995 6.43874L2.95246 5.76803C3.32601 5.18467 3.79795 4.67036 4.34726 4.24811L5.10528 5.23422C5.25558 5.42976 5.5349 5.4642 5.74495 5.33496C5.955 5.20572 6.05016 4.94086 5.94337 4.71856L5.40482 3.59742C6.02922 3.29749 6.70104 3.10802 7.39029 3.03754L7.51682 4.27485C7.54191 4.5202 7.76142 4.69632 8.00804 4.69678C8.25467 4.69724 8.47484 4.52194 8.50084 4.27669L8.63199 3.03986C9.32082 3.1129 9.99195 3.30483 10.6154 3.60716L10.0726 4.72627C9.965 4.94818 10.0592 5.21339 10.2687 5.34341C10.4783 5.47344 10.7577 5.44004 10.9088 5.24507L11.6705 4.2618C12.2181 4.68599 12.6881 5.20203 13.0596 5.78692L12.0096 6.45371C11.8014 6.58592 11.7421 6.86103 11.8521 7.0818C11.962 7.30257 12.2173 7.42104 12.4482 7.33457L13.6131 6.89844ZM10.9069 8.79066C11.0674 8.56595 11.0153 8.25368 10.7906 8.09317C10.5659 7.93267 10.2536 7.98471 10.0931 8.20942L8.71904 10.1331C8.4959 10.0471 8.25346 10 8 10C6.89543 10 6 10.8954 6 12C6 13.1046 6.89543 14 8 14C9.10457 14 10 13.1046 10 12C10 11.5107 9.82427 11.0624 9.53247 10.7148L10.9069 8.79066ZM8 13C8.55228 13 9 12.5523 9 12C9 11.4477 8.55228 11 8 11C7.44772 11 7 11.4477 7 12C7 12.5523 7.44772 13 8 13Z"
	/>
</svg>
