<!-- This Source Code Form is subject to the terms of the Mozilla Public
   - License, v. 2.0. If a copy of the MPL was not distributed with this
   - file, You can obtain one at http://mozilla.org/MPL/2.0/. -->

<svg
	width="16"
	height="16"
	viewBox="0 0 16 16"
	fill="context-fill"
	fill-opacity="context-fill-opacity"
	xmlns="http://www.w3.org/2000/svg"
>
	<path
		fill-rule="evenodd"
		clip-rule="evenodd"
		d="M7.30673 0.869003C7.56201 0.250534 8.43799 0.250534 8.69326 0.869003L10.8111 5.99995L14.6743 5.99991C15.4163 5.9999 15.7078 6.96231 15.0903 7.37394L11.5951 9.70414L13.2066 14.5387C13.443 15.2477 12.6102 15.8284 12.0266 15.3615L7.99999 12.1403L3.97339 15.3615C3.38979 15.8284 2.55702 15.2477 2.79336 14.5387L4.4049 9.70414L0.909662 7.37394C0.292232 6.96231 0.583652 5.9999 1.3257 5.99991L5.18891 5.99995L7.30673 0.869003ZM8 1.81041L6.04945 6.5361C5.93358 6.81682 5.65986 6.99996 5.35617 6.99996L2.15139 6.99992L5.11848 8.97801C5.39989 9.16562 5.52091 9.51837 5.41396 9.83922L4.00975 14.0518L7.53147 11.2345C7.80539 11.0153 8.19459 11.0153 8.46851 11.2345L11.9903 14.0518L10.586 9.83922C10.4791 9.51836 10.6001 9.16562 10.8815 8.97801L13.8486 6.99992L10.6438 6.99996C10.3401 6.99996 10.0664 6.81682 9.95054 6.5361L8 1.81041Z"
	/>
</svg>
