<!-- This Source Code Form is subject to the terms of the Mozilla Public
   - License, v. 2.0. If a copy of the MPL was not distributed with this
   - file, You can obtain one at http://mozilla.org/MPL/2.0/. -->

<svg
	width="16"
	height="16"
	viewBox="0 0 16 16"
	fill="context-fill"
	fill-opacity="context-fill-opacity"
	xmlns="http://www.w3.org/2000/svg"
>
	<path
		fill-rule="evenodd"
		clip-rule="evenodd"
		d="M7.31946 1.43353C7.58798 0.853868 8.41198 0.85386 8.68051 1.43352L10.7959 6.00003H14.25C14.9707 6.00003 15.2766 6.91757 14.7 7.35003L11.5733 9.69507L12.784 14.0456C12.9762 14.7362 12.1828 15.277 11.6102 14.8457L7.99998 12.126L4.38982 14.8457C3.81723 15.277 3.0238 14.7362 3.216 14.0456L4.42671 9.69507L1.29999 7.35003C0.723385 6.91758 1.02923 6.00003 1.74999 6.00003H5.20402L7.31946 1.43353ZM7.99998 2.34354L6.04426 6.56528C5.92145 6.83038 5.65589 7.00003 5.36373 7.00003H2.49999L5.16335 8.99755C5.41054 9.18294 5.51874 9.50095 5.4359 9.79863L4.37709 13.6033L7.5487 11.214C7.81589 11.0127 8.18407 11.0127 8.45126 11.214L11.6229 13.6033L10.5641 9.79863C10.4812 9.50095 10.5894 9.18294 10.8366 8.99755L13.5 7.00003H10.6362C10.3441 7.00003 10.0785 6.83038 9.95572 6.56528L7.99998 2.34354Z"
	/>
</svg>
