<!-- This Source Code Form is subject to the terms of the Mozilla Public
   - License, v. 2.0. If a copy of the MPL was not distributed with this
   - file, You can obtain one at http://mozilla.org/MPL/2.0/. -->

<svg
	width="16"
	height="16"
	viewBox="0 0 16 16"
	fill="context-fill"
	fill-opacity="context-fill-opacity"
	xmlns="http://www.w3.org/2000/svg"
>
	<path
		fill-rule="evenodd"
		clip-rule="evenodd"
		d="M5.5 1C5.22386 1 5 1.22386 5 1.5C5 1.77614 5.22386 2 5.5 2H7.5V3.02054C4.42023 3.27461 2 5.85467 2 9C2 12.3137 4.68629 15 8 15C11.3137 15 14 12.3137 14 9C14 7.7797 13.6357 6.64449 13.0099 5.69718L13.5 5.20711L14.1464 5.85355C14.3417 6.04882 14.6583 6.04882 14.8536 5.85355C15.0488 5.65829 15.0488 5.34171 14.8536 5.14645L13.8536 4.14645L12.8536 3.14645C12.6583 2.95118 12.3417 2.95118 12.1464 3.14645C11.9512 3.34171 11.9512 3.65829 12.1464 3.85355L12.7929 4.5L12.3866 4.90632C11.3979 3.8474 10.0304 3.14679 8.5 3.02054V2H10.5C10.7761 2 11 1.77614 11 1.5C11 1.22386 10.7761 1 10.5 1H8H5.5ZM8 4C5.23858 4 3 6.23858 3 9C3 11.7614 5.23858 14 8 14C10.7614 14 13 11.7614 13 9C13 6.23858 10.7614 4 8 4ZM8.5 6.5C8.5 6.22386 8.27614 6 8 6C7.72386 6 7.5 6.22386 7.5 6.5V9C7.5 9.17563 7.59215 9.33838 7.74275 9.42875L10.2428 10.9287C10.4795 11.0708 10.7867 10.994 10.9287 10.7572C11.0708 10.5205 10.994 10.2133 10.7572 10.0713L8.5 8.7169V6.5Z"
	/>
</svg>
