<!-- This Source Code Form is subject to the terms of the Mozilla Public
   - License, v. 2.0. If a copy of the MPL was not distributed with this
   - file, You can obtain one at http://mozilla.org/MPL/2.0/. -->

<svg
	width="16"
	height="16"
	viewBox="0 0 16 16"
	fill="context-fill"
	fill-opacity="context-fill-opacity"
	xmlns="http://www.w3.org/2000/svg"
>
	<path
		fill-rule="evenodd"
		clip-rule="evenodd"
		d="M8 1C8.27614 1 8.5 1.22386 8.5 1.5V3.52967C8.5 3.79587 8.2662 4 8 4C7.7338 4 7.5 3.79587 7.5 3.52967V1.5C7.5 1.22386 7.72386 1 8 1ZM10.8284 5.17155C10.6402 4.98335 10.6191 4.67379 10.8073 4.48558L12.2426 3.05021C12.4379 2.85495 12.7545 2.85495 12.9497 3.05021C13.145 3.24547 13.145 3.56206 12.9497 3.75732L11.5144 5.19269C11.3262 5.38089 11.0166 5.35976 10.8284 5.17155ZM12 8C12 7.7338 12.2041 7.5 12.4703 7.5H14.5C14.7761 7.5 15 7.72386 15 8C15 8.27614 14.7761 8.5 14.5 8.5H12.4703C12.2041 8.5 12 8.2662 12 8ZM10.8284 10.8284C11.0166 10.6402 11.3262 10.6191 11.5144 10.8073L12.9497 12.2426C13.145 12.4379 13.145 12.7544 12.9497 12.9497C12.7545 13.145 12.4379 13.145 12.2426 12.9497L10.8073 11.5144C10.6191 11.3262 10.6402 11.0166 10.8284 10.8284ZM8 12C8.2662 12 8.5 12.2041 8.5 12.4703V14.5C8.5 14.7761 8.27614 15 8 15C7.72386 15 7.5 14.7761 7.5 14.5V12.4703C7.5 12.2041 7.7338 12 8 12ZM5.17155 10.8284C5.35976 11.0166 5.38089 11.3262 5.19269 11.5144L3.75736 12.9497C3.5621 13.145 3.24551 13.145 3.05025 12.9497C2.85499 12.7544 2.85499 12.4379 3.05025 12.2426L4.48558 10.8073C4.67379 10.6191 4.98335 10.6402 5.17155 10.8284ZM4 8C4 8.2662 3.79587 8.5 3.52967 8.5H1.5C1.22386 8.5 1 8.27614 1 8C1 7.72386 1.22386 7.5 1.5 7.5H3.52967C3.79587 7.5 4 7.7338 4 8ZM5.17159 5.17155C4.98339 5.35976 4.67383 5.38089 4.48562 5.19269L3.05025 3.75732C2.85499 3.56206 2.85499 3.24547 3.05025 3.05021C3.24551 2.85495 3.5621 2.85495 3.75736 3.05021L5.19273 4.48558C5.38093 4.67379 5.3598 4.98335 5.17159 5.17155ZM10 8C10 9.10457 9.10457 10 8 10C6.89543 10 6 9.10457 6 8C6 6.89543 6.89543 6 8 6C9.10457 6 10 6.89543 10 8ZM11 8C11 9.65685 9.65685 11 8 11C6.34315 11 5 9.65685 5 8C5 6.34315 6.34315 5 8 5C9.65685 5 11 6.34315 11 8Z"
	/>
</svg>
