<!-- This Source Code Form is subject to the terms of the Mozilla Public
   - License, v. 2.0. If a copy of the MPL was not distributed with this
   - file, You can obtain one at http://mozilla.org/MPL/2.0/. -->

<svg
	width="16"
	height="16"
	viewBox="0 0 16 16"
	fill="context-fill"
	fill-opacity="context-fill-opacity"
	xmlns="http://www.w3.org/2000/svg"
>
	<path
		fill-rule="evenodd"
		clip-rule="evenodd"
		d="M1.01783 7.5008C1.09722 6.39066 1.44086 5.30637 2.03151 4.34252C2.94195 2.85682 4.37377 1.76408 6.04705 1.27795C7.72034 0.791817 9.51478 0.947233 11.0796 1.71381C12.2982 2.31082 13.3093 3.24507 14 4.39443V1.5C14 1.22386 14.2239 1 14.5 1C14.7761 1 15 1.22386 15 1.5V4.5C15 5.32843 14.3284 6 13.5 6H10.5C10.2239 6 10 5.77614 10 5.5C10 5.22386 10.2239 5 10.5 5H13.197C12.6042 3.97307 11.7166 3.13859 10.64 2.61117C9.29854 1.95402 7.76026 1.82079 6.32583 2.23752C4.89141 2.65426 3.66398 3.59101 2.88351 4.86462C2.38979 5.6703 2.09738 6.57414 2.02002 7.50097C1.99707 7.77594 1.77554 8 1.49961 8C1.22369 8 0.998149 7.77603 1.01783 7.5008ZM14.9822 8.49921C14.9028 9.60935 14.5591 10.6936 13.9685 11.6575C13.0581 13.1432 11.6262 14.2359 9.95295 14.722C8.27966 15.2082 6.48522 15.0528 4.92044 14.2862C3.7018 13.6892 2.69069 12.7549 2 11.6056V14.5C2 14.7761 1.77614 15 1.5 15C1.22386 15 1 14.7761 1 14.5V11.5C1 10.6716 1.67157 10 2.5 10H5.5C5.77614 10 6 10.2239 6 10.5C6 10.7761 5.77614 11 5.5 11H2.80298C3.39577 12.0269 4.28344 12.8614 5.36005 13.3888C6.70146 14.046 8.23974 14.1792 9.67417 13.7625C11.1086 13.3457 12.336 12.409 13.1165 11.1354C13.6102 10.3297 13.9026 9.42587 13.98 8.49904C14.0029 8.22407 14.2245 8 14.5004 8C14.7763 8 15.0019 8.22398 14.9822 8.49921Z"
	/>
</svg>
