<!-- This Source Code Form is subject to the terms of the Mozilla Public
   - License, v. 2.0. If a copy of the MPL was not distributed with this
   - file, You can obtain one at http://mozilla.org/MPL/2.0/. -->

<svg
	width="16"
	height="16"
	viewBox="0 0 16 16"
	fill="context-fill"
	fill-opacity="context-fill-opacity"
	xmlns="http://www.w3.org/2000/svg"
>
	<path
		d="M14.2801 4.90793C14.0057 4.35063 13.6566 3.82885 13.2394 3.35797L12.4909 4.02112C13.3576 4.99935 13.8812 6.23382 13.9821 7.53686C14.0034 7.81218 14.2439 8.01809 14.5192 7.99677C14.7945 7.97546 15.0004 7.73499 14.9791 7.45967C14.91 6.5667 14.6707 5.70131 14.2801 4.90793Z"
	/>
	<path
		d="M13.2394 3.35792C13.1957 3.30863 13.1514 3.26001 13.1065 3.21208C12.1109 2.15018 10.8075 1.42379 9.37715 1.13678L9.18042 2.11724C10.295 2.34089 11.3196 2.87578 12.1378 3.65504C12.2603 3.77165 12.3781 3.89374 12.4909 4.02107L13.2394 3.35792Z"
		mask="url(#mask-7)"
	/>
	<path
		d="M5.39169 2.59661C6.56868 2.02846 7.89899 1.86015 9.1804 2.11727L9.37713 1.13681C7.88216 0.836834 6.33012 1.0332 4.95697 1.69605L5.39169 2.59661Z"
		mask="url(#mask-6)"
	/>
	<path
		d="M2.65965 5.26495C3.25541 4.10169 4.21471 3.16477 5.3917 2.59661L4.95698 1.69604C3.58382 2.3589 2.46465 3.45197 1.76959 4.80911L2.65965 5.26495Z"
		mask="url(#mask-5)"
	/>
	<path
		d="M2.09105 9.04127C1.86423 7.75416 2.06388 6.42818 2.65964 5.26492L1.76958 4.80908C1.07453 6.16622 0.841608 7.71319 1.10623 9.21482L2.09105 9.04127Z"
		mask="url(#mask-4)"
	/>
	<path
		d="M3.91629 12.3959C2.95878 11.5063 2.3179 10.3285 2.09108 9.04132L1.10626 9.21487C1.37088 10.7165 2.11857 12.0907 3.23567 13.1285L3.91629 12.3959Z"
		mask="url(#mask-3)"
	/>
	<path
		d="M6.89251 13.897C5.78198 13.6884 4.74916 13.1696 3.91628 12.3959L3.23566 13.1285C4.30451 14.1215 5.65561 14.7545 7.09916 14.9419C7.16432 14.9503 7.22967 14.9579 7.29518 14.9645L7.39587 13.9696C7.22662 13.9524 7.05869 13.9282 6.89251 13.897Z"
		mask="url(#mask-2)"
	/>
	<path
		d="M11.1202 13.1249C10.0039 13.8046 8.69617 14.1012 7.39586 13.9696L7.29517 14.9645C7.92109 15.0278 8.54849 15.0061 9.16106 14.9031C10.0332 14.7564 10.8752 14.4449 11.6402 13.9791C11.8761 13.8355 11.9509 13.5279 11.8073 13.292C11.6637 13.0561 11.3561 12.9813 11.1202 13.1249Z"
		mask="url(#mask-1)"
	/>
	<mask id="mask-7">
		<rect width="16" height="16" fill="url(#grad-7)" />
	</mask>
	<mask id="mask-6">
		<rect width="16" height="16" fill="url(#grad-6)" />
	</mask>
	<mask id="mask-5">
		<rect width="16" height="16" fill="url(#grad-5)" />
	</mask>
	<mask id="mask-4">
		<rect width="16" height="16" fill="url(#grad-4)" />
	</mask>
	<mask id="mask-3">
		<rect width="16" height="16" fill="url(#grad-3)" />
	</mask>
	<mask id="mask-2">
		<rect width="16" height="16" fill="url(#grad-2)" />
	</mask>
	<mask id="mask-1">
		<rect width="16" height="16" fill="url(#grad-1)" />
	</mask>
	<defs>
		<linearGradient
			id="grad-7"
			x1="9.5"
			y1="1.5"
			x2="13"
			y2="4"
			gradientUnits="userSpaceOnUse"
		>
			<stop stop-color="#fff" stop-opacity="0.8" />
			<stop stop-color="#fff" offset="1" />
		</linearGradient>
		<linearGradient
			id="grad-6"
			x1="9"
			y1="2"
			x2="5"
			y2="2"
			gradientUnits="userSpaceOnUse"
		>
			<stop stop-color="#fff" stop-opacity="0.8" />
			<stop stop-color="#fff" offset="1" stop-opacity="0.7" />
		</linearGradient>
		<linearGradient
			id="grad-5"
			x1="5"
			y1="2"
			x2="2"
			y2="5"
			gradientUnits="userSpaceOnUse"
		>
			<stop stop-color="#fff" stop-opacity="0.7" />
			<stop stop-color="#fff" offset="1" stop-opacity="0.6" />
		</linearGradient>
		<linearGradient
			id="grad-4"
			x1="2"
			y1="5.5"
			x2="1.5"
			y2="9"
			gradientUnits="userSpaceOnUse"
		>
			<stop stop-color="#fff" stop-opacity="0.6" />
			<stop stop-color="#fff" offset="1" stop-opacity="0.5" />
		</linearGradient>
		<linearGradient
			id="grad-3"
			x1="2"
			y1="9.5"
			x2="3.5"
			y2="12.5"
			gradientUnits="userSpaceOnUse"
		>
			<stop stop-color="#fff" stop-opacity="0.5" />
			<stop stop-color="#fff" offset="1" stop-opacity="0.4" />
		</linearGradient>
		<linearGradient
			id="grad-2"
			x1="7"
			y1="14.5"
			x2="3.5"
			y2="12.5"
			gradientUnits="userSpaceOnUse"
		>
			<stop stop-color="#fff" stop-opacity="0.3" />
			<stop stop-color="#fff" offset="1" stop-opacity="0.4" />
		</linearGradient>
		<linearGradient
			id="grad-1"
			x1="11.5"
			y1="13.5"
			x2="7.5"
			y2="14.5"
			gradientUnits="userSpaceOnUse"
		>
			<stop stop-color="#fff" stop-opacity="0.2" />
			<stop stop-color="#fff" offset="1" stop-opacity="0.3" />
		</linearGradient>
	</defs>
</svg>
