<!-- This Source Code Form is subject to the terms of the Mozilla Public
   - License, v. 2.0. If a copy of the MPL was not distributed with this
   - file, You can obtain one at http://mozilla.org/MPL/2.0/. -->

<svg
	width="16"
	height="16"
	viewBox="0 0 16 16"
    fill="context-fill"
	fill-opacity="context-fill-opacity"
	xmlns="http://www.w3.org/2000/svg"
>
	<path
		fill-rule="evenodd"
		clip-rule="evenodd"
		d="M9.00581 8.57603C9.04334 8.81994 9.25321 9 9.5 9H14V11C14 12.1046 13.1046 13 12 13H4C2.89543 13 2 12.1046 2 11V5C2 3.89543 2.89543 3 4 3H8.14796L9.00581 8.57603ZM14 5V8H9.92896L9.15973 3H12C13.1046 3 14 3.89543 14 5ZM15 5V8V8.5V9V11C15 12.6569 13.6569 14 12 14H4C2.34315 14 1 12.6569 1 11V5C1 3.34315 2.34315 2 4 2H7.99993H8.5H9.00588H12C13.6569 2 15 3.34315 15 5ZM6.85357 4.85356C7.04883 4.65831 7.04884 4.34172 6.85359 4.14646C6.65833 3.95119 6.34175 3.95118 6.14648 4.14644L5.50002 4.79286L4.85355 4.14645L4.85354 4.14643C4.65827 3.95118 4.3417 3.95119 4.14644 4.14645C3.95118 4.34172 3.95119 4.65829 4.14645 4.85355L4.14646 4.85357L4.79288 5.5L4.14644 6.14648C3.95118 6.34174 3.95119 6.65833 4.14646 6.85358C4.34173 7.04884 4.65831 7.04883 4.85357 6.85356L5.49999 6.20711L6.14645 6.85357C6.34171 7.04883 6.65829 7.04884 6.85356 6.85357C7.04882 6.65831 7.04882 6.34173 6.85356 6.14647L6.2071 5.5L6.85357 4.85356Z"
	/>
</svg>
