<!-- This Source Code Form is subject to the terms of the Mozilla Public
   - License, v. 2.0. If a copy of the MPL was not distributed with this
   - file, You can obtain one at http://mozilla.org/MPL/2.0/. -->

<svg
	width="16"
	height="16"
	viewBox="0 0 16 16"
    fill="context-fill"
	fill-opacity="context-fill-opacity"
	xmlns="http://www.w3.org/2000/svg"
>
	<path
		fill-rule="evenodd"
		clip-rule="evenodd"
		d="M12 3H4C2.89543 3 2 3.89543 2 5V11C2 12.1046 2.89543 13 4 13H12C13.1046 13 14 12.1046 14 11V5C14 3.89543 13.1046 3 12 3ZM4 2C2.34315 2 1 3.34315 1 5V11C1 12.6569 2.34315 14 4 14H12C13.6569 14 15 12.6569 15 11V5C15 3.34315 13.6569 2 12 2H4ZM4.11589 5.17991C4.29267 4.96777 4.60795 4.93911 4.82009 5.11589L7.35916 7.23178C7.83891 7.63157 7.83891 8.36843 7.35916 8.76822L4.82009 10.8841C4.60795 11.0609 4.29267 11.0322 4.11589 10.8201C3.93911 10.608 3.96777 10.2927 4.17991 10.1159L6.71898 8L4.17991 5.88411C3.96777 5.70733 3.93911 5.39205 4.11589 5.17991ZM8.5 10C8.22386 10 8 10.2239 8 10.5C8 10.7761 8.22386 11 8.5 11H11.5C11.7761 11 12 10.7761 12 10.5C12 10.2239 11.7761 10 11.5 10H8.5Z"
	/>
</svg>
