<!-- This Source Code Form is subject to the terms of the Mozilla Public
   - License, v. 2.0. If a copy of the MPL was not distributed with this
   - file, You can obtain one at http://mozilla.org/MPL/2.0/. -->

<svg
	width="16"
	height="16"
	viewBox="0 0 16 16"
	fill="context-fill"
	fill-opacity="context-fill-opacity"
	xmlns="http://www.w3.org/2000/svg"
>
	<path
		fill-rule="evenodd"
		clip-rule="evenodd"
		d="M13.5558 9.72509C13.5487 9.71303 13.5421 9.70064 13.536 9.68795C13.5317 9.67916 13.5276 9.67021 13.5238 9.66113C13.1096 8.68226 12.4414 7.828 11.5847 7.18912C10.594 6.45038 9.3994 6.03563 8.16417 6.00154C6.92894 5.96744 5.71331 6.31566 4.6834 6.99862C3.90682 7.51359 3.26439 8.19994 2.80264 9H5.49914C5.77523 9 5.99905 9.22386 5.99905 9.5C5.99905 9.77614 5.77523 10 5.49914 10H2.49972C1.67146 10 1.00002 9.32843 1.00002 8.5V5.5C1.00002 5.22386 1.22383 5 1.49992 5C1.77601 5 1.99982 5.22386 1.99982 5.5V8.39444C2.53332 7.50649 3.25992 6.74364 4.13134 6.16578C5.33275 5.3691 6.75081 4.96289 8.19173 5.00267C9.63266 5.04244 11.0262 5.52626 12.1818 6.388C13.1746 7.12833 13.9503 8.11658 14.4342 9.24895L14.4438 9.27167C14.4546 9.2972 14.4653 9.3228 14.4758 9.34847C14.5803 9.60385 14.4359 9.887 14.1737 9.97304C13.9345 10.0516 13.6801 9.93861 13.5558 9.72509Z"
	/>
</svg>
