<!-- This Source Code Form is subject to the terms of the Mozilla Public
   - License, v. 2.0. If a copy of the MPL was not distributed with this
   - file, You can obtain one at http://mozilla.org/MPL/2.0/. -->

<svg
	width="16"
	height="16"
	viewBox="0 0 16 16"
	fill="context-fill"
	fill-opacity="context-fill-opacity"
	xmlns="http://www.w3.org/2000/svg"
>
	<path
		fill-rule="evenodd"
		clip-rule="evenodd"
		d="M11 5C11 6.65685 9.65685 8 8 8C6.34314 8 5 6.65685 5 5C5 3.34315 6.34314 2 8 2C9.65685 2 11 3.34315 11 5ZM12 5C12 7.20914 10.2091 9 8 9C5.79086 9 4 7.20914 4 5C4 2.79086 5.79086 1 8 1C10.2091 1 12 2.79086 12 5ZM2.97368 14.6601C2.97379 14.6598 2.97389 14.6594 2.974 14.6591L2.97397 14.6592L2.97382 14.6597L2.97368 14.6601ZM2.97368 14.6601C2.88561 14.9208 2.6032 15.0614 2.34188 14.9743C2.07991 14.887 1.93833 14.6039 2.02566 14.3419L2.5 14.5C2.02566 14.3419 2.02576 14.3416 2.02588 14.3412L2.02612 14.3405L2.02669 14.3388L2.02811 14.3347L2.03219 14.3231C2.03546 14.3139 2.03986 14.3019 2.04545 14.2873C2.05665 14.2581 2.07267 14.2184 2.09418 14.1695C2.13717 14.072 2.20224 13.9378 2.29467 13.7793C2.47942 13.4626 2.77482 13.0466 3.22336 12.6326C4.12999 11.7957 5.62673 11 8 11C10.3733 11 11.87 11.7957 12.7766 12.6326C13.2252 13.0466 13.5206 13.4626 13.7053 13.7793C13.7978 13.9378 13.8628 14.072 13.9058 14.1695C13.9273 14.2184 13.9433 14.2581 13.9545 14.2873C13.9601 14.3019 13.9645 14.3139 13.9678 14.3231L13.9719 14.3347L13.9733 14.3388L13.9739 14.3405L13.9741 14.3412C13.9742 14.3416 13.9743 14.3419 13.5 14.5L13.9743 14.3419C14.0617 14.6039 13.9201 14.887 13.6581 14.9743C13.3964 15.0616 13.1136 14.9204 13.0259 14.659L13.026 14.6592L13.0263 14.6601L13.0262 14.6597L13.0208 14.6453C13.0151 14.6305 13.0053 14.6059 12.9907 14.5726C12.9614 14.5062 12.9132 14.406 12.8415 14.2832C12.6982 14.0374 12.4623 13.7034 12.0984 13.3674C11.38 12.7043 10.1267 12 8 12C5.87327 12 4.62001 12.7043 3.90164 13.3674C3.53768 13.7034 3.30182 14.0374 3.15845 14.2832C3.08682 14.406 3.03861 14.5062 3.00933 14.5726C2.99471 14.6059 2.98485 14.6305 2.9792 14.6453L2.97382 14.6597C2.9735 14.6606 2.97334 14.6611 2.97334 14.6611L2.97337 14.661L2.97368 14.6601L2.97368 14.6601Z"
	/>
</svg>
