<svg width="16" height="16" viewBox="0 0 16 16" xmlns="http://www.w3.org/2000/svg">
    <path fill="context-fill" fill-opacity="context-fill-opacity"
        d="M11.885 8.28137C12.0183 8.48429 12.2055 8.68296 12.4483 8.68296C12.7122 8.68296 12.9323 8.46238 12.8584 8.20904C12.6464 7.48134 11.9724 7 11.0509 7C9.95674 7 9.13486 7.68913 9.1374 8.71998C9.1374 9.55719 9.6692 10.0384 10.5267 10.2862L11.1196 10.457C11.682 10.6165 12.0534 10.813 12.056 11.2658C12.0534 11.7641 11.6311 12.0973 11.0153 12.0973C10.5827 12.0973 10.2212 11.9383 10.0438 11.6124C9.92499 11.3941 9.73506 11.1889 9.48647 11.1889C9.22043 11.1889 9.00038 11.4122 9.06434 11.6704C9.27648 12.5269 9.98909 13 11.0229 13C12.2723 13 12.9974 12.3023 13 11.2743C12.9974 10.2634 12.2519 9.80209 11.4682 9.59421L10.9796 9.45752C10.5521 9.34362 10.0891 9.14143 10.0941 8.65449C10.0967 8.21595 10.4478 7.89416 11.0382 7.89416C11.4253 7.89416 11.7219 8.03314 11.885 8.28137Z" />
    <path fill="context-fill" fill-opacity="context-fill-opacity"
        d="M4.5 10.5C4.22386 10.5 4 10.7239 4 11C4 12.1046 4.89543 13 6 13C7.10457 13 8 12.1046 8 11V7.5C8 7.22386 7.77614 7 7.5 7C7.22386 7 7 7.22386 7 7.5V11C7 11.5523 6.55228 12 6 12C5.44772 12 5 11.5523 5 11C5 10.7239 4.77614 10.5 4.5 10.5Z" />
    <path fill="context-fill" fill-opacity="context-fill-opacity" fill-rule="evenodd" clip-rule="evenodd"
        d="M3 0C1.34315 0 0 1.34315 0 3V13C0 14.6569 1.34315 16 3 16H13C14.6569 16 16 14.6569 16 13V3C16 1.34315 14.6569 0 13 0H3ZM13 2H3C2.44772 2 2 2.44772 2 3V13C2 13.5523 2.44772 14 3 14H13C13.5523 14 14 13.5523 14 13V3C14 2.44772 13.5523 2 13 2Z" />
</svg>