<svg width="16" height="16" viewBox="0 0 16 16" xmlns="http://www.w3.org/2000/svg">
    <path fill="context-fill" fill-opacity="context-fill-opacity"
        d="M8 8C9.10457 8 10 7.10457 10 6C10 4.89543 9.10457 4 8 4C6.89543 4 6 4.89543 6 6C6 7.10457 6.89543 8 8 8Z" />
    <path fill="context-fill" fill-opacity="context-fill-opacity" fill-rule="evenodd" clip-rule="evenodd"
        d="M14 6.36693C14 8.49125 11.8102 11.7281 10.0764 13.9579C8.99609 15.3474 7.00391 15.3474 5.92358 13.9579C4.1898 11.7281 2 8.49125 2 6.36693C2 2.85057 4.68629 0 8 0C11.3137 0 14 2.85057 14 6.36693ZM4 6.36693C4 3.84164 5.90105 2 8 2C10.099 2 12 3.84164 12 6.36693C12 6.87417 11.6894 7.8243 10.9468 9.13955C10.2506 10.3727 9.33544 11.6526 8.49753 12.7303C8.33733 12.9363 8.15257 13 8 13C7.84743 13 7.66267 12.9363 7.50247 12.7303C6.66456 11.6526 5.74942 10.3727 5.05321 9.13955C4.31062 7.8243 4 6.87417 4 6.36693Z" />
</svg>